<?xml version="1.0" standalone="no"?>
<!DOCTYPE svg PUBLIC "-//W3C//DTD SVG 20010904//EN"
 "http://www.w3.org/TR/2001/REC-SVG-20010904/DTD/svg10.dtd">
<svg version="1.0" xmlns="http://www.w3.org/2000/svg"
 width="2048.000000pt" height="2048.000000pt" viewBox="0 0 2048.000000 2048.000000"
 preserveAspectRatio="xMidYMid meet">

<g transform="translate(0.000000,2048.000000) scale(0.100000,-0.100000)"
fill="#000000" stroke="none">
<path d="M5683 19510 c-82 -12 -219 -60 -290 -101 -91 -54 -204 -172 -245
-256 -62 -123 -98 -329 -98 -552 l0 -110 -34 6 c-44 7 -74 -11 -92 -52 -20
-50 -18 -81 17 -191 16 -55 32 -128 35 -164 11 -127 40 -170 122 -180 l47 -5
7 -94 c6 -97 21 -147 70 -239 l28 -54 0 -201 c0 -200 0 -202 -27 -256 -60
-119 -207 -242 -420 -352 -119 -62 -207 -98 -293 -121 -19 -5 -105 -13 -190
-17 -85 -5 -184 -16 -220 -26 -78 -20 -267 -109 -331 -156 -176 -129 -363
-379 -443 -592 -63 -169 -75 -321 -51 -667 22 -325 14 -445 -38 -572 -34 -82
-76 -230 -96 -338 -15 -83 -31 -297 -31 -421 0 -129 -8 -149 -105 -274 -148
-191 -216 -334 -299 -630 -56 -203 -78 -419 -96 -936 -12 -348 -16 -392 -70
-694 -22 -121 -48 -270 -59 -331 -19 -106 -66 -249 -94 -286 -7 -9 -52 -35
-99 -58 -130 -62 -178 -114 -261 -282 -99 -203 -235 -402 -352 -518 -66 -66
-76 -90 -55 -131 29 -53 162 -79 232 -44 39 20 127 91 148 120 28 39 62 67 70
59 4 -5 -1 -76 -12 -159 -15 -115 -20 -213 -21 -420 -1 -292 2 -318 52 -396
23 -37 37 -49 75 -60 l46 -13 0 -68 c0 -74 22 -143 51 -158 57 -31 125 19 155
115 l18 55 18 -30 c14 -24 25 -30 54 -30 51 0 71 14 99 70 19 37 55 165 55
193 0 1 21 2 48 2 26 0 55 4 65 8 30 12 91 159 157 376 33 112 75 234 91 270
113 246 143 354 143 521 1 125 1 125 -51 280 -51 153 -52 157 -42 224 12 84
32 179 71 321 26 97 46 169 113 395 49 166 181 554 216 633 132 303 202 512
220 659 8 67 23 124 55 204 63 160 74 212 80 367 2 76 11 171 20 210 17 83
101 387 146 527 51 163 91 320 103 410 10 67 9 68 61 -160 49 -217 120 -489
148 -570 13 -36 36 -99 51 -140 28 -75 28 -76 29 -340 l1 -265 -32 -107 c-18
-61 -40 -168 -50 -246 -16 -133 -16 -146 1 -295 12 -99 16 -176 11 -214 -7
-58 -88 -394 -145 -595 -40 -145 -67 -303 -80 -483 -7 -82 -32 -269 -57 -415
-109 -647 -107 -628 -108 -1110 0 -355 2 -415 24 -595 16 -134 26 -292 31
-480 4 -154 13 -318 20 -365 22 -159 73 -319 207 -650 l38 -95 -1 -160 c-1
-136 -5 -179 -29 -290 -28 -128 -28 -138 -35 -560 -7 -472 0 -401 -78 -735
-52 -219 -66 -387 -52 -603 12 -185 26 -275 101 -657 54 -274 90 -480 119
-685 5 -38 21 -149 35 -245 13 -96 36 -258 50 -360 20 -136 27 -230 28 -355 1
-169 1 -170 -33 -265 -45 -124 -48 -230 -10 -332 23 -63 24 -71 13 -147 -18
-120 -39 -155 -219 -369 -112 -132 -144 -195 -144 -285 0 -60 29 -130 58 -146
29 -15 72 -14 106 4 26 14 31 14 52 0 30 -19 55 -19 98 2 33 15 37 15 69 -2
34 -18 43 -18 124 6 37 11 46 11 76 -5 36 -20 67 -19 149 5 40 11 58 11 105 0
32 -7 81 -15 108 -18 44 -4 55 -2 82 21 68 57 78 131 38 261 -28 90 -31 145
-11 201 7 22 17 98 20 169 8 141 27 285 51 386 29 124 12 225 -70 408 -59 133
-66 191 -55 476 13 331 42 552 100 765 6 19 23 89 40 155 16 66 48 174 71 240
56 165 69 239 76 460 10 320 -12 501 -100 815 -44 158 -61 260 -53 324 3 28
26 123 51 211 109 384 124 475 141 885 5 120 50 435 79 550 15 62 39 230 55
392 8 86 17 119 40 165 60 117 78 191 125 503 24 161 41 252 105 550 40 187
49 353 27 535 -28 233 -29 261 -11 276 20 16 170 17 187 0 7 -7 4 -76 -11
-238 -13 -125 -22 -253 -22 -285 0 -79 30 -248 99 -568 11 -52 32 -178 46
-280 30 -216 63 -345 116 -452 32 -64 40 -93 49 -180 41 -382 45 -410 95 -638
23 -109 30 -174 55 -575 11 -165 30 -274 81 -453 70 -247 99 -375 99 -435 0
-71 -19 -166 -79 -392 -49 -185 -67 -309 -76 -525 -12 -283 16 -490 91 -680
30 -78 48 -149 120 -480 53 -245 80 -558 71 -848 l-5 -177 -46 -102 c-50 -112
-86 -229 -86 -281 0 -18 11 -81 24 -140 30 -133 35 -169 45 -357 5 -103 14
-166 27 -202 l18 -51 -27 -94 c-42 -145 -33 -244 26 -294 34 -29 97 -32 173
-9 63 19 99 19 158 -1 49 -17 79 -15 133 7 27 11 39 11 65 0 57 -23 75 -23
113 -5 36 17 40 17 67 1 37 -21 72 -22 103 -1 21 14 26 14 54 0 44 -23 85 -20
120 9 39 34 55 84 48 156 -7 83 -51 156 -197 325 -55 66 -120 155 -141 194
-31 62 -40 226 -14 266 11 17 19 55 22 103 5 69 2 88 -32 191 -36 113 -37 117
-36 268 1 137 12 290 26 362 3 14 19 131 36 260 45 348 45 345 89 615 22 138
67 385 100 550 116 593 117 815 9 1230 l-42 160 -6 465 c-3 256 -10 470 -14
477 -16 25 -58 254 -64 349 -7 127 7 207 58 337 169 422 208 601 209 942 0
105 5 228 10 275 52 434 54 470 54 810 -1 422 -16 582 -99 1030 -52 287 -62
354 -70 470 -14 242 -44 417 -110 644 -96 331 -117 432 -116 546 0 58 7 143
14 190 21 133 5 294 -54 521 -29 113 -30 125 -31 350 -1 256 6 302 63 442 30
73 41 109 89 292 33 124 106 448 116 512 9 61 20 45 27 -39 7 -80 41 -210 142
-543 112 -371 115 -387 125 -595 7 -172 10 -191 40 -275 18 -49 43 -112 56
-138 15 -29 29 -80 35 -130 19 -157 74 -330 216 -677 179 -436 405 -1213 405
-1395 1 -45 -10 -90 -40 -178 -54 -154 -67 -249 -52 -375 15 -119 47 -225 112
-362 42 -90 120 -315 148 -430 13 -50 56 -163 85 -220 33 -65 62 -84 114 -75
38 6 41 5 47 -22 28 -126 71 -226 99 -237 9 -3 35 -6 57 -6 35 0 41 4 51 30
13 33 27 40 27 13 1 -29 39 -106 67 -136 52 -54 124 -24 138 57 9 56 13 90 15
121 1 26 8 33 49 53 42 19 53 31 76 80 17 35 30 86 35 132 13 115 4 498 -15
658 -20 169 -16 192 23 142 100 -130 174 -180 266 -180 83 0 142 29 155 77 11
40 -2 67 -49 106 -88 70 -258 313 -354 505 -99 198 -139 240 -289 311 -85 40
-89 43 -112 95 -27 61 -49 141 -64 231 -16 94 -68 389 -91 510 -31 166 -39
256 -45 530 -12 513 -36 742 -102 970 -77 266 -171 461 -282 588 -28 32 -63
79 -78 105 -28 46 -28 51 -35 262 -9 287 -38 451 -119 660 -40 102 -41 108
-46 260 -4 105 0 221 12 358 27 326 2 507 -99 719 -94 195 -257 396 -406 501
-91 65 -262 145 -345 163 -22 5 -112 13 -201 18 -140 8 -172 13 -252 40 -79
28 -205 83 -252 111 -8 5 -46 28 -85 51 -160 95 -275 200 -324 298 -21 41 -22
53 -19 245 l3 201 44 94 c38 82 44 106 52 195 4 56 8 102 9 104 0 1 20 2 44 2
78 0 116 53 116 162 0 26 13 90 30 141 38 118 46 175 31 220 -17 50 -45 72
-92 71 l-39 -1 0 116 c-1 203 -39 428 -93 539 -73 150 -249 282 -446 333 -87
23 -280 33 -378 19z m392 -65 c117 -34 213 -91 301 -179 87 -88 117 -147 150
-302 21 -96 27 -155 31 -311 6 -207 7 -212 59 -192 35 13 58 4 72 -27 19 -40
14 -90 -18 -190 -16 -52 -33 -125 -36 -164 -4 -40 -15 -82 -26 -100 -17 -29
-22 -31 -66 -29 -43 3 -48 1 -61 -25 -7 -15 -17 -69 -21 -119 -9 -103 -43
-190 -104 -270 -56 -74 -57 -75 -181 -557 -29 -113 -71 -277 -94 -365 -45
-172 -49 -228 -16 -233 14 -2 29 11 52 45 35 52 114 216 158 328 15 39 31 75
37 80 22 24 -50 -154 -128 -313 -47 -95 -84 -181 -82 -190 5 -28 36 -25 91 9
107 68 169 121 188 163 17 37 19 39 19 14 0 -40 36 -129 64 -159 32 -34 120
-47 148 -22 27 24 22 63 -23 206 -22 71 -38 131 -36 133 2 2 21 -48 41 -112
42 -128 64 -159 123 -170 51 -10 149 2 218 26 75 26 226 90 242 102 6 5 24 8
39 6 21 -2 -22 -27 -190 -110 -119 -60 -220 -108 -226 -108 -5 0 -20 -10 -32
-22 -20 -20 -29 -21 -287 -22 -248 -1 -269 -2 -311 -22 -128 -59 -203 -233
-261 -604 -30 -191 -32 -555 -5 -725 46 -293 73 -337 232 -389 145 -47 515
-71 654 -42 100 21 215 81 324 168 159 128 209 212 310 518 35 107 81 231 102
275 36 75 38 86 38 170 0 160 -63 327 -155 415 -55 53 -159 112 -259 146 -36
13 -57 23 -47 23 31 1 172 -58 233 -98 74 -47 145 -126 179 -197 26 -55 65
-192 65 -230 0 -11 9 -55 20 -98 37 -140 131 -297 230 -384 55 -48 168 -122
186 -122 19 0 103 166 178 350 25 60 52 168 61 239 7 58 15 65 15 12 0 -99
-43 -232 -142 -444 -76 -159 -80 -199 -31 -247 17 -17 49 -53 69 -81 21 -27
41 -49 45 -49 4 0 35 -37 69 -82 40 -55 46 -66 18 -33 -185 213 -395 405 -444
405 -3 0 -3 -17 1 -37 4 -24 3 -34 -3 -28 -29 31 -144 203 -186 278 -27 48
-54 87 -61 87 -39 0 -62 -681 -29 -897 17 -115 16 -127 -5 -114 -11 7 -17 66
-27 268 -13 238 -12 376 2 591 4 69 3 82 -10 82 -9 0 -22 -12 -30 -27 -33 -65
-105 -359 -151 -618 -18 -102 -63 -321 -71 -347 -3 -10 -15 -18 -28 -18 -13 0
-49 -9 -82 -21 -51 -18 -73 -20 -166 -14 -129 8 -148 1 -148 -54 0 -35 -3 -39
-30 -45 -24 -4 -35 -15 -47 -43 -18 -42 -30 -219 -19 -278 22 -113 133 -113
304 -1 40 27 77 56 82 66 18 33 12 78 -12 94 l-22 16 27 0 c42 0 67 17 83 57
19 45 26 39 14 -12 -17 -71 -12 -243 9 -330 43 -179 53 -251 38 -287 l-14 -33
-7 33 c-12 51 -56 63 -131 37 -11 -4 1 6 26 23 48 31 82 72 92 110 11 45 -44
183 -83 207 -26 16 -85 5 -153 -28 -40 -19 -95 -42 -123 -51 -89 -29 -104 -61
-105 -226 0 -182 20 -213 117 -175 36 14 37 14 19 0 -11 -9 -40 -27 -65 -40
-88 -45 -110 -95 -117 -271 -10 -216 24 -250 167 -171 96 53 191 132 279 232
24 28 41 42 37 32 -3 -10 -6 -30 -6 -43 0 -18 -5 -24 -21 -24 -12 0 -48 -25
-83 -57 -34 -32 -107 -88 -162 -126 -118 -79 -128 -89 -149 -146 -21 -60 -21
-231 1 -276 35 -75 105 -60 234 48 44 37 83 67 86 67 4 0 -13 -17 -37 -37 -90
-78 -185 -169 -217 -208 -42 -53 -106 -220 -133 -347 -17 -84 -20 -124 -16
-218 3 -63 11 -131 17 -150 6 -19 13 -87 16 -150 8 -166 17 -203 63 -234 53
-37 85 -34 130 12 20 20 50 55 66 77 25 34 321 335 329 335 4 0 22 -45 31 -77
5 -18 2 -23 -13 -23 -33 0 -66 -90 -87 -240 l-12 -85 -2 72 c-1 57 -5 74 -18
82 -30 16 -69 -15 -115 -91 -23 -39 -44 -66 -46 -59 -6 19 -60 13 -72 -9 -6
-10 -32 -45 -60 -76 -27 -31 -57 -76 -66 -100 -9 -24 -24 -46 -33 -49 -24 -7
-198 -190 -218 -228 -11 -21 -16 -56 -16 -102 0 -62 -1 -66 -10 -35 -19 73
-41 63 -117 -53 -58 -87 -60 -93 -60 -155 0 -64 32 -203 71 -312 31 -84 120
-250 146 -270 l23 -18 -46 -123 c-26 -68 -66 -171 -89 -229 -118 -295 -245
-818 -306 -1259 -10 -75 -16 -109 -14 -76 3 33 8 123 11 200 l6 140 -37 125
c-55 187 -71 339 -57 520 7 80 17 208 23 285 5 77 19 198 29 269 24 157 25
176 5 176 -9 0 -50 -29 -93 -64 -107 -88 -160 -113 -187 -87 -18 16 -108 19
-168 4 l-60 -14 -53 32 c-29 18 -79 56 -112 86 -33 29 -65 53 -71 53 -15 0
-14 -38 3 -135 8 -44 19 -136 25 -205 57 -642 56 -660 -33 -957 -27 -89 -31
-144 -23 -303 3 -58 3 -91 1 -75 -3 17 -13 91 -24 165 -24 163 -89 475 -137
660 -57 222 -87 308 -244 715 -18 44 -34 86 -36 93 -3 6 1 12 8 12 25 0 121
162 156 263 44 126 83 281 83 327 0 56 -24 109 -84 188 -35 45 -54 62 -71 62
-13 0 -26 -6 -28 -12 -3 -7 -6 3 -6 22 -1 19 -10 53 -20 75 -23 50 -185 223
-216 231 -15 4 -28 20 -39 49 -17 43 -97 157 -130 184 -9 8 -31 14 -48 14 -26
0 -36 9 -73 67 -41 64 -89 101 -114 86 -31 -19 -20 -125 54 -506 76 -394 244
-1092 333 -1390 47 -153 125 -383 191 -560 51 -134 133 -400 170 -545 75 -297
218 -1063 209 -1119 -2 -12 -12 33 -22 99 -37 245 -158 834 -230 1115 -40 158
-43 165 -66 165 -25 0 -25 0 -32 -130 -4 -71 -12 -175 -18 -230 -17 -162 -86
-566 -132 -765 -41 -181 -41 -189 -42 -375 -2 -343 57 -504 175 -481 56 10
158 76 231 148 65 64 67 65 61 35 -8 -46 -112 -305 -168 -417 -56 -115 -68
-182 -36 -202 28 -17 28 -76 -1 -174 -16 -56 -18 -78 -10 -86 25 -25 59 8 106
102 25 51 46 98 46 106 0 8 4 14 9 14 11 0 -26 -151 -79 -320 -22 -69 -48
-165 -59 -213 -13 -59 -31 -108 -54 -145 -97 -158 -187 -400 -218 -587 -18
-108 -18 -456 0 -555 17 -96 44 -167 82 -220 26 -35 27 -40 9 -30 -12 6 -29 9
-37 6 -14 -6 -15 -21 -9 -109 12 -191 26 -452 36 -682 11 -239 26 -392 41
-411 5 -6 9 -98 8 -205 0 -107 3 -213 7 -234 4 -22 24 -78 46 -125 51 -110 88
-234 88 -292 0 -26 -7 -76 -15 -113 -23 -97 -42 -253 -50 -399 -4 -71 -13
-144 -21 -162 -22 -53 -17 -121 17 -222 29 -85 31 -96 20 -133 -25 -83 -79
-106 -174 -73 -52 17 -116 15 -209 -6 -51 -13 -59 -12 -76 3 -23 21 -78 22
-112 2 -36 -20 -70 -18 -96 6 l-23 22 -41 -22 c-49 -26 -60 -26 -99 -3 -30 17
-32 16 -72 -6 -38 -22 -42 -22 -65 -7 -34 22 -47 60 -41 126 7 79 41 138 156
272 55 64 116 141 136 169 68 103 89 272 47 376 -31 74 -28 140 10 258 29 91
32 112 35 259 4 131 7 162 20 172 32 25 2 342 -87 899 -27 172 -61 365 -75
430 -36 173 -29 172 14 -1 50 -196 130 -482 174 -620 43 -134 77 -249 113
-375 15 -52 35 -124 46 -160 11 -36 26 -92 34 -125 17 -67 34 -91 59 -81 18 7
16 33 -11 181 -13 68 -80 322 -114 435 -53 174 -230 846 -230 874 0 26 13 -17
69 -226 52 -196 114 -411 232 -808 48 -162 93 -283 111 -294 29 -17 48 10 48
68 0 62 -30 336 -66 594 -14 103 -30 217 -34 253 -5 36 -34 229 -65 430 -54
357 -71 458 -180 1104 -92 547 -107 664 -112 855 -5 207 -7 220 -34 220 -15 0
-27 -16 -50 -67 -16 -36 -34 -87 -40 -111 -20 -89 -28 -81 -28 28 0 213 18
453 44 580 13 69 28 172 31 228 l7 104 34 -83 c38 -96 61 -124 91 -115 27 9
31 22 44 145 26 263 -4 420 -162 841 -122 327 -140 393 -192 725 -20 124 -22
178 -22 480 0 265 4 370 18 475 39 301 54 455 46 464 -18 18 -38 -5 -49 -56
-13 -61 -77 -254 -92 -277 -11 -17 -11 -19 11 69 7 25 43 146 82 270 39 124
95 304 124 400 30 96 73 231 95 300 55 168 69 249 69 394 0 119 -20 311 -40
391 -15 58 -51 134 -65 137 -10 2 -9 14 2 51 l14 48 21 -26 c12 -15 55 -56 96
-91 41 -35 113 -107 159 -161 125 -144 165 -183 185 -183 11 0 37 9 59 21 57
28 69 65 79 233 5 78 14 166 20 196 7 33 10 107 8 185 -4 110 -10 147 -37 239
-60 202 -91 247 -301 440 l-85 78 90 -77 c112 -95 156 -119 201 -110 59 11 69
39 69 190 0 161 -11 185 -111 253 -11 7 -4 5 14 -3 19 -9 51 -15 75 -13 37 3
44 8 60 38 16 30 18 51 13 145 -9 189 -38 256 -131 300 -60 28 -73 40 -26 24
91 -32 114 10 109 196 -4 160 -15 180 -118 216 -41 14 -100 38 -130 52 -109
53 -167 28 -210 -91 -13 -34 -25 -61 -27 -59 -2 3 6 42 18 88 24 89 30 204 16
299 l-8 55 21 -33 c13 -21 31 -35 50 -39 22 -4 29 -10 26 -22 -20 -74 -18 -88
21 -121 21 -17 78 -51 127 -75 113 -58 153 -60 203 -10 l35 35 -4 123 c-6 147
-21 197 -64 216 -24 10 -31 19 -31 42 0 50 -13 54 -142 51 -74 -2 -129 2 -147
9 -16 6 -51 17 -79 24 -62 14 -62 14 -110 283 -48 266 -60 322 -105 497 -47
183 -67 237 -88 233 -13 -3 -14 -24 -11 -153 5 -199 1 -577 -9 -690 -7 -84 -8
-90 -31 -93 -13 -2 -21 0 -18 5 37 60 39 974 2 1011 -10 10 -28 -16 -81 -112
-43 -80 -198 -305 -231 -336 -9 -9 19 43 45 83 18 27 22 41 14 49 -18 18 -134
-72 -272 -211 -69 -70 -140 -144 -158 -166 -24 -29 -21 -23 9 20 23 33 61 80
84 105 23 25 60 68 83 97 53 64 52 74 -27 243 -113 240 -142 336 -139 460 1
41 3 59 5 40 16 -170 51 -287 143 -471 32 -64 63 -133 70 -153 7 -22 18 -36
28 -36 27 0 174 104 229 163 112 118 193 289 222 469 44 268 185 426 443 498
40 11 79 20 88 19 8 0 -23 -11 -70 -25 -258 -75 -382 -202 -440 -454 -30 -130
-24 -189 34 -300 26 -50 61 -145 86 -229 76 -263 147 -392 288 -521 173 -158
309 -210 551 -210 65 0 175 7 243 16 228 29 302 54 357 121 38 46 53 97 81
276 20 125 22 165 17 415 -4 218 -9 305 -26 407 -54 328 -118 470 -243 537
-41 22 -54 23 -306 26 -207 2 -267 5 -285 16 -12 8 -128 66 -257 128 -175 84
-228 114 -208 116 15 2 55 -11 95 -31 75 -38 265 -102 329 -112 56 -9 118 10
143 41 12 15 31 53 42 85 31 85 33 67 4 -32 -26 -87 -26 -132 1 -147 27 -15
112 3 140 29 35 33 46 55 60 119 l11 55 15 -36 c19 -45 65 -82 174 -143 80
-45 114 -52 114 -25 0 7 -25 61 -55 120 -61 120 -128 270 -122 276 2 2 17 -25
32 -59 59 -133 117 -247 137 -267 29 -31 52 -23 56 19 4 36 -5 73 -68 300 -21
74 -70 265 -109 423 -40 158 -77 300 -84 315 -6 15 -26 45 -45 67 -18 22 -49
72 -69 112 -31 63 -36 83 -40 165 -2 51 -9 105 -15 121 -10 25 -15 27 -64 27
-70 0 -84 20 -95 138 -5 56 -19 118 -38 171 -35 92 -39 145 -15 180 15 20 22
23 59 17 28 -3 46 -1 53 7 5 7 12 89 15 182 14 437 102 614 372 750 136 69
224 86 400 80 90 -3 142 -10 210 -30z m-731 -2126 c14 -57 57 -223 96 -369 98
-362 132 -492 128 -496 -9 -8 -103 185 -164 336 -113 280 -114 284 -114 499 1
167 2 183 15 160 8 -15 25 -73 39 -130z m1007 -119 c-13 -176 -30 -243 -102
-411 -68 -159 -158 -343 -165 -337 -2 3 9 54 24 114 16 60 53 199 82 309 122
463 142 539 153 564 11 23 12 19 15 -39 2 -36 -1 -126 -7 -200z m-1062 -227
c1 -7 -10 -13 -24 -13 -28 0 -32 20 -14 67 l11 28 13 -35 c8 -19 14 -41 14
-47z m1136 -43 c12 -41 52 -168 88 -282 36 -114 69 -223 73 -243 l6 -35 -45 0
c-43 0 -46 2 -70 43 -37 64 -40 88 -42 272 -1 185 -14 260 -46 270 -20 7 -26
46 -12 81 8 20 12 11 48 -106z m-1206 -85 c-5 -44 -8 -143 -7 -220 1 -149 -8
-191 -50 -228 -20 -19 -92 -40 -101 -31 -6 5 -2 19 89 334 34 118 64 218 67
223 11 17 11 0 2 -78z m-86 23 c-16 -21 -72 -171 -99 -264 -24 -84 -60 -154
-86 -170 -37 -23 -148 -2 -323 64 -84 31 -115 49 -94 55 179 52 488 215 568
301 25 26 52 37 34 14z m1605 -142 c138 -83 244 -132 361 -167 18 -6 30 -14
25 -19 -16 -15 -207 -87 -262 -99 -72 -15 -127 -14 -161 4 -22 11 -35 31 -55
87 -43 121 -113 312 -121 332 -5 12 13 2 47 -26 30 -25 105 -75 166 -112z
m-1424 67 c17 -58 78 -197 141 -322 25 -51 44 -95 42 -98 -7 -6 -139 81 -166
111 -16 17 -27 44 -32 79 -8 57 -12 277 -4 277 2 0 11 -21 19 -47z m1041 -223
c-6 -47 -13 -60 -49 -95 -43 -41 -147 -117 -153 -112 -1 2 10 28 25 58 64 125
131 279 153 349 l24 75 3 -110 c2 -60 0 -135 -3 -165z m-975 175 c0 -5 -5 -3
-10 5 -5 8 -10 20 -10 25 0 6 5 3 10 -5 5 -8 10 -19 10 -25z m-299 -146 c-5
-13 -10 -19 -10 -12 -1 15 10 45 15 40 3 -2 0 -15 -5 -28z m-741 -89 c65 -24
468 -222 469 -231 1 -3 -36 -9 -81 -12 -158 -11 -328 -69 -455 -155 -125 -85
-206 -238 -238 -452 -24 -161 -107 -310 -247 -446 -90 -88 -158 -126 -158 -90
0 7 -29 72 -65 145 -36 72 -76 164 -89 203 -110 331 -7 633 296 865 110 85
288 166 399 181 97 14 110 14 169 -8z m3205 -6 c77 -18 231 -92 314 -151 188
-132 311 -314 351 -521 18 -89 8 -219 -25 -321 -26 -82 -132 -325 -161 -369
l-15 -22 -39 20 c-104 53 -213 171 -274 296 -43 90 -50 113 -86 278 -16 77
-43 167 -58 200 -92 195 -332 331 -627 354 l-90 7 40 21 c484 248 491 251 670
208z m-2091 -288 c122 -51 188 -197 241 -531 53 -330 27 -854 -49 -1020 -20
-45 -33 -58 -73 -79 -141 -71 -578 -99 -753 -48 -86 25 -133 50 -215 113 -91
70 -124 102 -180 179 -73 100 -110 185 -171 394 -19 66 -56 165 -82 220 -44
94 -47 106 -47 181 1 146 60 290 157 382 97 91 193 132 422 178 165 33 265 42
514 44 152 1 211 -2 236 -13z m1411 -10 c273 -49 407 -101 510 -198 97 -90
154 -239 155 -399 0 -57 -6 -79 -44 -160 -24 -52 -69 -173 -100 -269 -76 -232
-129 -333 -226 -431 -84 -85 -202 -167 -288 -199 -84 -32 -189 -43 -352 -36
-251 10 -411 44 -480 102 -112 94 -151 668 -76 1109 53 310 131 465 250 496
55 15 551 3 651 -15z m212 -2 c-3 -3 -12 -4 -19 -1 -8 3 -5 6 6 6 11 1 17 -2
13 -5z m1249 -545 c27 -103 34 -290 19 -474 -8 -94 -15 -226 -15 -295 -1 -121
-2 -124 -18 -100 -9 14 -54 67 -100 118 -116 132 -118 134 -102 185 6 23 26
69 44 102 85 161 136 315 143 438 3 48 8 86 10 83 2 -2 11 -28 19 -57z m-4946
-201 c17 -51 62 -159 101 -239 38 -81 69 -153 69 -161 0 -8 -30 -50 -67 -92
-38 -43 -87 -103 -110 -134 -24 -31 -43 -52 -44 -46 0 5 0 41 1 79 1 39 -6
170 -16 293 -15 189 -16 243 -6 360 15 181 24 210 34 110 4 -42 21 -119 38
-170z m663 -498 c-5 -463 -14 -540 -89 -732 -91 -235 -210 -454 -413 -763 -58
-88 -118 -182 -133 -210 l-28 -50 0 150 c0 228 63 711 125 950 70 273 178 525
299 700 135 196 189 278 209 323 l22 47 5 -80 c3 -44 4 -195 3 -335z m3616
332 c16 -32 46 -81 67 -108 206 -269 376 -639 443 -964 53 -253 105 -730 99
-908 l-3 -93 -55 86 c-30 47 -93 145 -140 218 -196 302 -372 661 -426 867 -13
52 -29 151 -35 220 -14 162 0 740 17 740 2 0 17 -26 33 -58z m-3484 -160 c33
-138 58 -259 90 -437 14 -82 46 -249 70 -370 66 -341 67 -323 -2 -665 -4 -20
-6 -22 -13 -10 -13 24 -105 389 -141 560 -36 174 -37 202 -29 685 3 154 1 296
-4 315 -4 19 -5 32 -2 29 4 -4 18 -52 31 -107z m3323 -124 c0 -106 6 -269 12
-361 6 -93 8 -190 5 -215 -20 -145 -169 -780 -188 -799 -10 -9 -51 244 -54
337 -4 94 0 128 40 330 25 124 55 279 67 345 42 236 108 555 115 555 1 0 3
-87 3 -192z m615 -133 c84 -84 192 -220 249 -311 37 -58 86 -212 111 -349 32
-174 31 -479 -1 -650 -40 -213 -65 -324 -72 -320 -4 3 -10 51 -14 107 -32 473
-113 957 -195 1168 -65 167 -176 389 -243 487 -15 23 -28 45 -28 49 0 10 78
-63 193 -181z m-4395 158 c-55 -64 -232 -425 -276 -563 -83 -261 -152 -698
-178 -1128 -4 -62 -10 -110 -14 -105 -10 11 -56 224 -74 343 -34 219 -29 450
14 675 39 203 77 293 190 445 65 88 321 350 342 350 7 0 6 -6 -4 -17z m-34
-150 c-194 -386 -266 -670 -334 -1315 -13 -129 -13 -395 0 -403 19 -11 60 24
97 83 20 31 70 109 112 172 42 63 108 168 145 233 38 65 71 116 73 113 2 -2
-59 -115 -138 -251 -131 -227 -141 -249 -136 -285 3 -22 35 -107 72 -190 71
-160 95 -232 95 -293 0 -47 -12 -42 -30 13 -14 42 -49 68 -72 54 -26 -16 -137
-281 -290 -689 -49 -132 -110 -294 -134 -360 -70 -183 -161 -453 -194 -573
-37 -135 -84 -386 -77 -407 10 -24 51 -18 80 13 25 26 134 251 197 407 29 70
95 204 87 174 -3 -8 -34 -116 -71 -240 -121 -415 -154 -574 -135 -659 5 -25
25 -90 43 -145 19 -55 39 -124 45 -153 29 -138 1 -292 -89 -502 -34 -80 -78
-194 -97 -255 -91 -287 -128 -394 -153 -440 -23 -43 -31 -50 -60 -52 l-33 -3
6 83 c6 71 38 249 77 425 9 39 9 57 1 65 -7 7 -14 7 -20 2 -13 -13 -52 -192
-96 -440 -38 -209 -56 -282 -86 -352 -16 -39 -22 -43 -52 -43 -32 0 -35 3 -47
45 -15 54 -9 123 51 529 22 148 37 276 34 285 -6 14 -9 13 -26 -8 -10 -13 -19
-33 -19 -45 0 -35 -80 -605 -97 -686 -34 -169 -71 -245 -116 -238 -39 6 -49
47 -48 211 0 173 29 526 56 693 7 42 -7 66 -26 47 -13 -13 -46 -282 -63 -516
-8 -104 -17 -191 -20 -194 -3 -3 -19 0 -35 7 -29 12 -62 69 -75 130 -21 103
-11 513 18 759 16 133 12 161 -25 161 -32 0 -52 -15 -99 -75 -25 -31 -71 -74
-104 -96 -49 -33 -66 -39 -110 -39 -54 0 -116 28 -116 53 0 7 23 35 51 62 58
57 192 233 266 350 28 44 75 133 106 197 69 146 109 188 238 251 152 75 169
114 250 594 23 139 44 252 45 250 1 -1 -3 -111 -9 -243 -5 -133 -7 -249 -4
-258 9 -24 33 -9 51 32 19 45 70 220 141 487 82 310 189 690 280 1000 110 373
125 447 125 619 0 131 -27 336 -62 483 -19 80 -20 118 -3 102 2 -3 16 -66 30
-140 34 -184 68 -311 89 -344 17 -26 20 -27 32 -11 7 10 15 57 19 104 3 48 10
148 16 222 32 437 115 883 204 1104 50 124 208 436 220 436 2 0 -21 -48 -51
-107z m4265 51 c12 -20 20 -38 18 -40 -2 -2 -14 14 -26 36 -28 50 -21 53 8 4z
m90 -166 c95 -179 170 -400 206 -603 9 -49 23 -124 31 -165 22 -109 61 -465
75 -687 7 -106 16 -198 20 -205 16 -25 36 15 68 127 16 61 39 162 51 225 29
161 30 164 40 154 5 -5 -1 -50 -15 -104 -39 -161 -58 -353 -52 -519 5 -158 -5
-109 135 -611 27 -96 81 -294 121 -440 300 -1090 290 -1060 326 -1060 23 0 28
42 16 132 -13 99 -26 385 -18 378 4 -3 22 -98 42 -210 68 -391 98 -505 147
-557 12 -14 63 -45 111 -69 127 -64 165 -104 235 -242 127 -251 253 -434 385
-563 42 -41 47 -50 38 -67 -6 -11 -33 -28 -60 -37 -40 -13 -57 -14 -91 -5 -48
13 -161 106 -204 168 -22 33 -35 42 -58 42 -48 0 -52 -26 -34 -194 23 -207 23
-683 0 -754 -20 -61 -51 -100 -84 -104 l-25 -3 -8 150 c-7 153 -50 546 -61
564 -13 21 -37 -1 -32 -28 34 -161 73 -750 57 -852 -12 -72 -16 -79 -45 -79
-63 0 -100 108 -140 410 -30 219 -84 559 -92 572 -6 10 -34 11 -34 1 1 -13 28
-194 39 -258 6 -33 24 -159 40 -281 26 -194 28 -226 17 -270 -11 -44 -15 -49
-43 -52 -25 -3 -35 2 -49 23 -23 36 -60 165 -85 300 -12 60 -38 198 -60 306
-21 108 -39 199 -39 203 0 3 -9 6 -20 6 -22 0 -25 -19 -11 -66 18 -60 96 -492
89 -499 -1 -2 -15 -6 -29 -10 -52 -13 -101 90 -184 380 -25 88 -74 225 -109
305 -104 240 -116 285 -115 445 0 116 17 197 75 355 26 72 26 78 16 165 -12
94 -80 373 -155 633 -24 83 -41 152 -37 152 7 0 50 -91 50 -106 0 -11 140
-320 171 -377 15 -29 44 -68 64 -87 32 -31 36 -33 51 -18 15 14 15 26 5 94
-17 113 -94 411 -139 539 -189 532 -234 656 -326 887 -36 92 -66 170 -66 173
0 14 -95 225 -127 283 -31 55 -39 63 -62 60 -21 -2 -29 -12 -46 -58 l-20 -55
-3 45 c-5 65 12 116 100 299 47 99 78 176 78 195 -1 20 -24 69 -65 136 -135
223 -157 261 -152 266 3 3 19 -19 36 -48 17 -29 84 -134 149 -233 88 -134 125
-182 146 -190 21 -7 29 -6 36 5 17 27 -4 357 -41 655 -52 418 -106 626 -240
919 -67 149 -63 154 10 14z m-3552 -474 c44 -13 78 -15 149 -10 88 6 124 2
124 -13 0 -14 -127 -111 -171 -131 -95 -42 -133 -21 -169 97 -24 78 -25 87 -5
79 9 -3 41 -13 72 -22z m2757 17 c8 -12 -33 -130 -56 -163 -34 -48 -90 -34
-220 54 -66 44 -87 72 -61 82 9 4 61 4 117 1 84 -5 109 -2 151 13 62 24 63 24
69 13z m-3249 -261 c-25 -85 -57 -193 -70 -240 -14 -47 -43 -146 -64 -220 -60
-207 -72 -272 -81 -450 -7 -137 -13 -178 -34 -240 -15 -41 -30 -78 -34 -82 -4
-4 -18 25 -31 64 -13 40 -38 102 -56 138 -48 98 -85 195 -85 227 0 16 10 44
23 63 35 53 307 539 307 549 0 4 22 52 48 106 27 55 64 135 82 178 19 44 36
75 37 70 2 -5 -17 -78 -42 -163z m745 135 c-33 -34 -142 -97 -190 -109 -14 -4
7 9 45 28 39 20 93 53 120 75 62 49 69 51 25 6z m2297 -67 c43 -22 65 -37 48
-33 -36 8 -125 59 -168 98 l-32 28 37 -26 c21 -15 73 -45 115 -67z m612 22
c59 -162 194 -416 393 -742 100 -164 100 -140 7 -328 -44 -88 -84 -183 -90
-210 -6 -28 -15 -48 -20 -45 -4 3 -20 43 -35 88 -22 68 -28 110 -34 252 -5 94
-11 179 -14 190 -3 11 -14 58 -25 105 -11 47 -31 121 -45 165 -13 44 -40 134
-60 200 -20 66 -50 161 -66 212 -29 91 -47 173 -38 173 3 0 15 -27 27 -60z
m-2811 -14 c7 -35 12 -100 12 -145 0 -92 -17 -121 -69 -121 -35 0 -231 98
-246 123 -18 31 -2 47 95 91 30 14 82 46 115 71 33 25 65 45 71 45 6 0 16 -29
22 -64z m2033 46 c15 -9 52 -35 84 -57 31 -21 80 -48 108 -60 42 -16 53 -25
55 -46 3 -22 -7 -32 -64 -69 -68 -45 -151 -79 -191 -80 -13 0 -33 10 -44 21
-20 20 -21 29 -17 143 4 110 16 166 36 166 4 0 19 -8 33 -18z m-3031 -290 c0
-5 -7 -17 -15 -28 -14 -18 -14 -17 -4 9 12 27 19 34 19 19z m805 -72 c44 -21
92 -41 107 -45 14 -4 37 -18 50 -32 22 -23 23 -32 23 -161 l0 -137 -29 -3
c-21 -3 -52 11 -115 49 -180 110 -250 172 -251 222 0 32 32 101 63 135 26 28
42 25 152 -28z m2513 28 c26 -29 61 -106 62 -136 0 -45 -124 -152 -281 -240
-63 -36 -94 -40 -103 -15 -11 27 -8 237 3 266 12 30 39 50 96 67 22 7 68 28
103 47 75 39 91 41 120 11z m-3348 -16 c0 -5 -7 -17 -15 -28 -14 -18 -14 -17
-4 9 12 27 19 34 19 19z m4076 -69 c15 -27 34 -58 42 -70 8 -13 10 -23 6 -23
-5 0 -26 32 -47 70 -43 79 -44 96 -1 23z m-3452 -142 c11 -13 45 -38 74 -57
66 -43 67 -52 1 -19 -44 23 -55 25 -84 15 -23 -8 -35 -19 -40 -38 l-7 -27 -15
30 c-14 25 -14 38 -3 95 16 84 20 89 38 54 8 -16 24 -40 36 -53z m-1330 -147
c48 -233 59 -506 27 -659 -18 -88 -69 -269 -136 -490 -38 -124 -130 -453 -200
-715 -26 -96 -59 -220 -75 -275 -37 -133 -78 -284 -84 -315 -3 -14 -3 9 0 50
3 41 9 332 14 645 8 541 24 843 49 970 70 344 168 602 289 763 31 41 63 83 71
94 20 27 29 12 45 -68z m5514 33 c111 -129 190 -285 259 -512 95 -315 110
-478 123 -1300 6 -330 13 -618 16 -640 11 -70 -3 -34 -40 105 -20 74 -50 182
-66 240 -16 58 -54 195 -84 305 -100 365 -136 498 -201 725 -94 332 -115 418
-123 513 -15 167 36 628 67 615 5 -2 27 -24 49 -51z m-1396 11 c7 -13 12 -60
12 -109 0 -74 -4 -93 -29 -145 -52 -107 -255 -289 -362 -325 -55 -18 -63 0
-63 135 0 124 19 213 49 236 11 8 61 40 112 70 50 30 128 79 173 107 45 29 84
53 88 53 4 0 13 -10 20 -22z m-2673 -37 c42 -27 123 -78 181 -113 103 -62 105
-65 124 -118 11 -34 20 -97 23 -165 5 -99 4 -112 -15 -135 -19 -24 -20 -24
-60 -8 -99 39 -290 206 -347 303 -25 42 -29 60 -33 151 -3 56 -2 110 1 118 11
28 49 17 126 -33z m124 -30 c6 -7 -12 1 -41 19 -28 17 -52 34 -52 36 0 8 80
-39 93 -55z m2327 15 c0 -2 -8 -10 -17 -17 -16 -13 -17 -12 -4 4 13 16 21 21
21 13z m-2548 -284 c16 -27 91 -101 178 -176 43 -37 43 -37 5 -10 -22 15 -71
55 -109 87 -39 33 -74 56 -82 53 -8 -3 -14 -2 -14 3 0 5 -3 23 -6 40 -8 38 6
40 28 3z m79 -149 c35 -32 108 -89 161 -126 53 -38 105 -81 114 -95 13 -19 19
-53 22 -117 7 -146 -21 -205 -80 -174 -55 28 -163 116 -218 178 -92 100 -103
131 -101 263 1 61 4 115 7 119 11 18 32 7 95 -48z m2692 7 c4 -25 6 -81 5
-125 -3 -75 -6 -84 -45 -140 -82 -120 -276 -278 -319 -261 -24 9 -36 57 -36
151 0 136 12 157 129 237 40 26 108 80 150 118 43 39 85 69 93 68 9 -2 18 -21
23 -48z m-3598 -334 c31 -105 13 -240 -58 -427 -85 -224 -323 -777 -420 -974
-13 -27 -28 -61 -32 -75 -4 -14 -46 -106 -92 -205 -107 -230 -136 -266 -103
-125 10 41 30 131 45 200 15 69 43 172 62 230 100 300 485 1323 536 1424 18
38 20 39 34 21 7 -11 20 -42 28 -69z m4510 -63 c26 -59 63 -151 82 -203 19
-52 56 -151 83 -220 47 -119 122 -323 188 -510 17 -47 57 -159 90 -250 78
-215 184 -635 159 -628 -14 5 -108 190 -173 343 -26 61 -62 144 -81 185 -79
169 -227 500 -255 565 -155 371 -204 515 -214 628 -6 70 5 157 28 217 l10 25
17 -22 c10 -12 40 -71 66 -130z m-3704 115 c11 -21 11 -22 -4 -9 -10 7 -17 17
-17 22 0 15 9 10 21 -13z m2853 -113 c39 -190 42 -280 16 -520 -11 -96 -10
-125 5 -227 25 -158 26 -155 -159 -313 -32 -27 -97 -97 -143 -155 -46 -58 -94
-110 -105 -116 -63 -34 -94 30 -103 211 -3 72 -12 146 -18 165 -7 21 -12 92
-11 180 1 163 11 211 76 378 43 111 68 142 239 297 36 33 90 88 119 123 29 34
57 59 61 55 5 -5 15 -40 23 -78z m-2766 -43 c64 -65 136 -133 159 -150 83 -65
162 -221 199 -397 20 -93 20 -282 0 -365 -9 -36 -16 -104 -16 -152 0 -117 -15
-183 -47 -208 -14 -11 -34 -20 -44 -20 -11 0 -56 45 -115 116 -115 138 -142
165 -232 237 -91 73 -99 93 -82 205 17 112 17 232 0 356 -13 91 -12 112 8 271
20 160 34 225 47 225 3 0 58 -53 123 -118z m-210 -1100 c11 -43 28 -141 38
-217 15 -120 16 -157 6 -255 -13 -132 -25 -178 -115 -460 -198 -622 -192 -602
-247 -805 l-19 -70 0 50 c0 28 6 106 14 175 17 140 18 145 51 325 34 183 81
496 89 585 19 227 57 464 90 565 8 22 21 69 30 105 27 106 35 106 63 2z m3091
19 c60 -164 104 -403 126 -671 8 -103 30 -272 50 -380 67 -370 76 -426 95
-600 10 -96 18 -175 16 -177 -3 -3 -67 197 -104 327 -17 58 -56 186 -87 285
-32 99 -68 214 -80 255 -13 41 -35 116 -50 165 -49 161 -56 198 -62 345 -6
142 6 308 28 395 26 102 30 115 38 115 5 0 18 -26 30 -59z m-2925 -158 c19
-27 39 -64 44 -83 6 -19 39 -134 75 -255 36 -121 82 -281 102 -355 45 -167
197 -639 278 -860 33 -91 71 -196 84 -235 14 -38 29 -74 33 -80 11 -15 86
-237 110 -325 28 -105 115 -493 139 -625 25 -132 57 -385 66 -510 3 -49 8
-118 11 -153 3 -34 1 -104 -5 -155 -5 -50 -13 -123 -16 -161 -4 -37 -10 -64
-15 -60 -4 5 -13 45 -19 89 -25 167 -125 657 -179 880 -32 129 -125 429 -182
580 -81 218 -129 358 -172 500 -43 144 -206 788 -243 960 -13 61 -39 182 -58
270 -37 165 -91 466 -102 568 -8 71 3 73 49 10z m2744 -71 c-17 -174 -132
-708 -273 -1272 -89 -357 -148 -555 -236 -799 -151 -415 -236 -701 -313 -1051
-43 -196 -103 -524 -112 -615 -8 -72 -24 -78 -24 -9 0 25 -7 103 -16 172 -19
151 -14 268 22 522 35 252 78 476 135 710 67 274 96 368 183 599 40 108 79
214 86 236 7 22 16 45 20 50 7 10 90 264 189 580 27 88 95 315 151 503 121
410 123 416 157 460 35 47 42 29 31 -86z m57 -382 c11 -53 68 -248 150 -510
40 -129 92 -298 115 -375 23 -77 60 -196 82 -265 53 -162 52 -159 40 -140 -15
23 -89 227 -108 300 -20 76 -30 91 -51 83 -19 -7 -15 -54 22 -323 86 -621 49
-1179 -109 -1635 -25 -71 -64 -177 -86 -235 -139 -352 -171 -535 -139 -794 13
-104 22 -134 45 -143 25 -9 48 25 86 125 32 85 33 86 35 47 6 -88 26 -226 50
-335 23 -104 26 -140 29 -385 l4 -270 -28 90 c-42 135 -77 191 -99 163 -6 -7
-13 -89 -16 -183 -6 -188 -29 -366 -106 -805 -17 -96 -51 -299 -75 -450 -25
-151 -61 -369 -81 -485 -86 -510 -205 -1388 -205 -1516 0 -64 10 -89 37 -89
30 0 34 10 194 555 50 171 102 346 115 390 14 44 45 154 69 245 24 91 44 160
44 153 2 -31 -174 -708 -244 -938 -72 -237 -134 -517 -122 -550 11 -27 40 -13
54 25 10 31 44 141 137 455 14 44 41 134 61 200 57 187 80 273 141 513 32 122
59 221 61 218 2 -2 -8 -68 -22 -147 -31 -176 -62 -375 -115 -749 -44 -310 -52
-468 -25 -490 12 -10 15 -41 15 -159 0 -141 1 -151 35 -254 42 -127 46 -217
15 -282 -14 -29 -19 -62 -20 -121 0 -145 29 -203 209 -419 122 -146 151 -197
158 -273 8 -107 -45 -158 -122 -117 -29 16 -33 16 -63 1 -39 -20 -56 -20 -87
0 -26 17 -47 15 -102 -7 -28 -11 -37 -11 -68 4 -44 21 -85 22 -111 2 -25 -19
-63 -19 -107 0 -46 19 -108 19 -171 0 -66 -20 -119 -19 -138 3 -46 52 -51 110
-19 226 25 89 27 155 7 217 -8 24 -17 107 -20 184 -6 139 -21 251 -50 375 -9
36 -16 80 -16 99 0 47 34 159 81 263 55 123 60 157 59 381 0 127 4 204 10 213
14 16 27 143 40 399 13 256 38 650 46 725 5 45 3 58 -11 70 -13 11 -21 11 -36
2 -31 -20 -31 -14 5 35 19 27 44 77 56 113 43 127 51 482 16 680 -29 164 -127
423 -211 559 -25 40 -43 89 -59 162 -14 57 -52 200 -85 317 -34 118 -61 217
-61 220 1 4 23 -40 51 -98 64 -135 115 -190 133 -144 3 9 -5 52 -19 96 -31 97
-32 139 -5 163 26 23 25 57 -4 125 -23 55 -68 159 -154 360 -24 58 -47 123
-49 145 l-5 40 23 -31 c48 -62 174 -158 252 -192 85 -37 147 22 183 175 12 51
16 123 16 283 0 213 0 216 -36 365 -70 286 -134 701 -141 910 l-4 120 9 -90
c47 -464 152 -1001 225 -1146 25 -47 89 -113 123 -123 56 -18 100 37 150 189
46 137 104 295 165 450 115 294 166 480 209 760 32 212 32 561 0 860 -21 187
-50 395 -66 465 -3 14 -13 84 -21 155 -15 132 -57 314 -138 593 -46 158 -56
179 -80 169 -18 -7 -40 -86 -132 -477 -43 -179 -91 -381 -107 -450 -40 -164
-155 -551 -214 -715 -117 -330 -123 -352 -124 -465 -2 -105 -3 -110 -14 -57
-4 15 -13 27 -21 27 -20 0 -29 -25 -76 -205 -57 -221 -163 -737 -208 -1015
-11 -69 -22 -136 -24 -150 -3 -16 -5 -10 -6 15 -3 98 115 721 205 1080 31 123
157 510 269 825 73 206 162 524 250 895 25 105 63 267 86 360 52 218 128 598
137 684 6 55 8 37 13 -109 3 -96 9 -191 14 -210z m-2590 265 c54 -76 65 -119
64 -255 -1 -159 -10 -170 -38 -48 -13 56 -39 155 -56 218 -48 171 -49 176 -31
161 9 -8 36 -42 61 -76z m2349 53 c-3 -18 -14 -60 -24 -93 -32 -102 -68 -237
-81 -304 -11 -56 -13 -61 -21 -40 -5 13 -8 85 -6 159 3 122 5 139 27 175 33
54 94 134 103 135 4 0 5 -15 2 -32z m-2060 -398 c23 -43 28 -98 16 -196 -15
-121 -74 -279 -105 -279 -15 0 -25 13 -39 55 -18 49 -20 86 -22 325 l-1 270
69 -75 c38 -41 75 -86 82 -100z m1851 -97 c-2 -236 -5 -275 -22 -323 -11 -30
-26 -56 -34 -58 -18 -3 -48 50 -79 138 -17 48 -24 96 -28 182 -4 107 -3 120
17 154 17 28 140 173 148 174 0 0 0 -120 -2 -267z m485 -178 c39 -143 77 -300
85 -350 39 -238 87 -632 116 -935 30 -320 -28 -827 -128 -1113 -19 -56 -82
-228 -140 -382 -58 -154 -116 -314 -129 -356 -24 -75 -59 -139 -80 -146 -25
-8 -80 45 -112 107 -102 203 -242 1056 -230 1403 l4 122 83 229 c100 279 182
552 250 831 29 116 63 255 76 310 35 144 125 532 125 541 0 25 16 -29 80 -261z
m-2531 103 l-1 -103 -21 65 c-13 44 -16 65 -9 68 6 2 14 19 18 38 3 19 8 34
10 34 2 0 4 -46 3 -102z m2121 47 c15 9 11 -23 -10 -85 l-18 -55 0 100 c0 79
2 93 9 67 5 -18 14 -30 19 -27z m-1770 -71 c58 -77 69 -110 60 -164 -25 -145
-82 -309 -150 -435 -23 -41 -43 -75 -45 -75 -2 0 -13 40 -24 89 -29 123 -27
173 9 248 42 90 77 208 92 307 6 47 13 86 15 86 1 0 21 -25 43 -56z m1471
-134 c11 -47 37 -123 57 -170 43 -99 47 -164 17 -293 l-17 -78 -19 31 c-77
125 -133 274 -164 433 -18 93 -8 132 59 226 l31 44 8 -54 c4 -30 17 -92 28
-139z m-1606 -52 c-4 -13 -23 -58 -41 -100 -23 -50 -37 -100 -41 -143 l-6 -66
-27 83 -26 83 25 3 c38 5 56 26 88 98 28 65 40 83 28 42z m1672 -20 c-3 -8 -6
-5 -6 6 -1 11 2 17 5 13 3 -3 4 -12 1 -19z m64 -114 c7 -4 24 -7 39 -6 l27 1
-27 -82 c-15 -45 -29 -89 -32 -97 -3 -8 -3 14 -1 50 5 59 2 72 -24 125 -38 75
-53 127 -18 63 13 -26 30 -50 36 -54z m-565 -476 c-13 -49 -46 -332 -58 -498
-24 -327 -14 -465 50 -670 30 -99 35 -128 35 -210 -1 -123 -35 -475 -44 -458
-13 25 -58 245 -74 363 -9 66 -44 255 -77 420 -58 279 -62 309 -61 430 0 120
26 447 39 488 3 9 31 35 62 56 31 21 70 53 86 70 35 37 51 40 42 9z m-518
-102 c18 -9 32 -20 32 -25 0 -4 9 -99 21 -212 29 -285 23 -371 -46 -694 -31
-139 -59 -284 -64 -321 -32 -237 -78 -484 -90 -484 -10 0 -44 353 -45 460 0
78 5 108 26 166 72 196 87 350 64 630 -25 301 -46 525 -53 563 l-6 33 65 -50
c35 -27 79 -57 96 -66z m-1564 -49 c-31 -206 -39 -343 -39 -637 1 -324 9 -417
60 -675 37 -187 58 -255 160 -526 141 -373 147 -400 153 -652 4 -203 -1 -277
-17 -277 -5 0 -24 42 -44 93 -20 50 -63 160 -97 242 -204 497 -228 601 -240
1035 -6 205 -15 359 -30 470 -13 107 -23 253 -26 415 l-6 250 50 125 c27 69
57 149 67 178 9 29 18 52 20 50 1 -2 -4 -43 -11 -91z m3521 -42 c13 -33 40
-103 61 -155 l37 -95 -6 -175 c-6 -171 -42 -615 -53 -655 -3 -11 -9 -144 -14
-295 -9 -288 -20 -385 -66 -544 -31 -110 -160 -457 -207 -557 -19 -41 -49
-113 -67 -161 -18 -49 -36 -88 -41 -88 -27 0 -31 387 -5 505 19 86 60 213 121
370 141 361 200 607 236 980 16 171 6 587 -20 795 -23 183 -24 209 -9 165 6
-16 21 -57 33 -90z m-3619 -41 c-8 -21 -15 -31 -15 -22 -1 18 20 70 26 65 2
-2 -3 -21 -11 -43z m3703 -36 c6 -18 7 -28 2 -23 -10 12 -25 55 -18 55 3 0 10
-15 16 -32z m-1063 -1203 c25 -280 63 -514 131 -795 29 -122 35 -169 40 -300
8 -242 -18 -408 -76 -472 -23 -26 -31 -29 -59 -23 -47 10 -175 99 -231 161
-65 71 -93 131 -98 213 -5 71 23 319 57 491 70 365 117 592 163 785 47 200 52
215 55 165 1 -30 9 -131 18 -225z m-1537 100 c60 -261 71 -310 105 -480 121
-593 147 -807 111 -914 -34 -104 -157 -228 -280 -282 -85 -37 -111 -16 -147
122 -19 73 -22 111 -22 289 -1 213 -1 211 54 445 62 261 130 728 130 900 0 45
4 75 9 70 4 -6 23 -73 40 -150z m348 -307 c-2 -13 -4 -5 -4 17 -1 22 1 32 4
23 2 -10 2 -28 0 -40z m770 -85 c-2 -16 -4 -5 -4 22 0 28 2 40 4 28 2 -13 2
-35 0 -50z m-744 -113 c4 -50 3 -64 -3 -41 -4 19 -11 75 -13 125 -7 105 6 39
16 -84z m734 -2 c-2 -13 -4 -3 -4 22 0 25 2 35 4 23 2 -13 2 -33 0 -45z m285
-1437 c73 -165 78 -187 49 -207 -29 -21 -28 -71 3 -184 12 -45 -45 72 -89 179
-46 116 -52 147 -60 326 l-6 120 22 -50 c12 -27 48 -110 81 -184z m-1206 202
c-2 -10 -8 -67 -11 -128 -4 -60 -13 -136 -21 -168 -17 -72 -89 -256 -109 -283
-14 -18 -14 -17 -5 9 5 16 10 55 10 87 0 49 -4 61 -21 74 -29 20 -22 50 39
179 27 56 62 135 78 174 16 40 33 73 37 73 5 0 6 -8 3 -17z m-957 -620 c3
-141 36 -384 121 -888 38 -225 92 -556 119 -735 28 -179 55 -350 61 -380 51
-290 169 -1225 155 -1238 -7 -7 -21 34 -71 208 -25 85 -58 196 -74 245 -16 50
-52 176 -80 280 -29 105 -63 226 -76 270 -58 200 -120 482 -148 680 -50 344
-92 818 -102 1140 -6 206 -5 226 15 305 37 145 63 230 70 225 4 -2 8 -52 10
-112z m3044 80 c8 -21 28 -87 43 -148 27 -103 29 -122 27 -285 -1 -178 -41
-695 -68 -901 -9 -63 -20 -145 -25 -184 -36 -280 -90 -553 -139 -710 -11 -33
-54 -184 -96 -335 -42 -151 -98 -345 -125 -430 -27 -85 -60 -195 -75 -243 -15
-49 -29 -87 -31 -84 -17 17 109 980 166 1267 6 30 26 159 45 285 44 300 96
618 151 939 65 374 94 601 94 744 0 67 4 122 9 122 5 0 16 -17 24 -37z m-2273
-636 c0 -12 18 -92 40 -177 68 -261 88 -360 99 -487 20 -223 11 -501 -20 -648
-10 -47 -48 -176 -55 -183 -4 -6 -48 20 -102 61 -75 57 -148 158 -172 237 -56
184 -52 571 9 782 31 109 89 257 138 351 45 88 63 106 63 64z m1530 -57 c150
-298 199 -525 187 -869 -8 -237 -25 -294 -120 -416 -41 -53 -114 -118 -158
-141 l-27 -13 -25 67 c-49 133 -60 217 -60 472 0 292 12 399 70 620 25 96 55
217 66 268 11 50 22 92 24 92 1 0 21 -36 43 -80z m-2446 -265 c18 -289 80
-786 126 -1012 33 -161 157 -643 225 -873 72 -245 98 -341 92 -346 -4 -4 -12
21 -106 341 -160 546 -239 860 -295 1165 -59 324 -72 472 -67 740 3 156 15
149 25 -15z m3325 -101 c1 -208 -10 -315 -59 -574 -17 -91 -37 -199 -45 -240
-30 -167 -160 -661 -275 -1045 -28 -93 -60 -204 -72 -245 -12 -41 -23 -70 -25
-64 -4 11 11 64 102 379 214 739 318 1303 351 1895 10 179 22 122 23 -106z
m-3373 -494 c15 -103 64 -380 105 -593 28 -150 32 -173 98 -612 65 -425 85
-583 79 -611 -2 -11 -10 26 -17 81 -25 206 -103 744 -121 845 -11 58 -40 218
-65 355 -25 138 -52 286 -60 330 -25 137 -55 373 -54 417 1 32 4 23 10 -32 5
-41 16 -122 25 -180z m3424 91 c-12 -100 -66 -412 -125 -731 -66 -352 -85
-477 -151 -985 -16 -121 -30 -203 -32 -183 -3 38 5 107 58 478 36 256 80 526
120 745 67 368 120 674 127 740 4 39 9 61 11 51 2 -11 -1 -62 -8 -115z m-3203
-533 c-3 -8 -6 -5 -6 6 -1 11 2 17 5 13 3 -3 4 -12 1 -19z m768 -257 c-50
-159 -126 -508 -139 -643 -7 -70 -14 -130 -17 -133 -6 -6 -25 286 -40 625 -6
135 -14 271 -18 302 -4 32 -6 60 -3 63 3 2 54 -41 114 -97 74 -69 107 -106
103 -117z m1641 157 c-8 -86 -24 -339 -36 -603 -13 -270 -20 -351 -31 -333 -5
7 -9 31 -9 53 0 69 -37 277 -90 516 -51 225 -52 231 -34 251 20 22 196 177
203 178 2 0 1 -28 -3 -62z m-96 18 c0 -2 -7 -7 -16 -10 -8 -3 -12 -2 -9 4 6
10 25 14 25 6z m727 -38 c-3 -8 -6 -5 -6 6 -1 11 2 17 5 13 3 -3 4 -12 1 -19z
m-2247 -60 c0 -15 -15 -7 -55 28 l-40 35 47 -28 c26 -15 48 -31 48 -35z m1420
22 c-35 -30 -50 -36 -50 -22 0 6 69 51 80 51 3 0 -11 -13 -30 -29z m-1921
-1100 c0 -9 -4 -8 -9 5 -5 11 -9 27 -9 35 0 9 4 8 9 -5 5 -11 9 -27 9 -35z
m2378 -12 c-3 -8 -6 -5 -6 6 -1 11 2 17 5 13 3 -3 4 -12 1 -19z"/>
<path d="M5585 17370 c-3 -5 7 -51 23 -102 17 -51 38 -130 47 -174 20 -94 27
-109 48 -101 19 7 38 97 40 191 2 86 -15 121 -84 166 -50 32 -64 36 -74 20z
m99 -91 c21 -25 26 -40 25 -82 -1 -29 -4 -63 -8 -77 -7 -23 -8 -22 -15 13 -4
21 -18 70 -31 108 -26 78 -16 91 29 38z"/>
<path d="M5996 17356 c-58 -35 -86 -88 -86 -163 0 -74 16 -159 37 -192 24 -37
41 -9 59 95 8 49 27 125 41 170 37 114 25 136 -51 90z m14 -83 c-10 -27 -24
-77 -31 -112 -14 -74 -27 -62 -28 27 -1 56 18 104 46 121 30 17 32 13 13 -36z"/>
<path d="M5500 14495 c-58 -13 -161 -31 -230 -40 -221 -29 -249 -55 -286 -272
-27 -158 -30 -269 -9 -363 8 -36 14 -96 15 -133 0 -37 7 -83 14 -102 24 -57
53 -49 184 50 131 98 195 137 392 235 158 79 174 90 198 135 35 65 9 279 -50
423 -43 104 -51 106 -228 67z m169 -29 c35 -41 91 -275 91 -377 0 -71 -34
-103 -205 -188 -157 -79 -310 -168 -370 -215 -22 -18 -61 -47 -87 -64 -45 -31
-48 -32 -58 -13 -5 11 -10 41 -10 68 0 26 -8 101 -17 165 -16 110 -16 124 1
252 20 161 37 229 61 256 29 32 112 57 250 74 72 10 164 26 205 36 92 23 124
24 139 6z"/>
<path d="M5974 14512 c-29 -19 -87 -173 -110 -290 -26 -136 -16 -210 34 -255
10 -10 86 -51 168 -93 195 -99 279 -149 415 -250 62 -46 121 -84 130 -84 38 0
45 28 74 295 16 139 16 157 1 240 -9 50 -21 119 -27 154 -11 73 -37 138 -66
163 -32 29 -97 47 -227 63 -68 8 -167 26 -220 40 -97 25 -152 31 -172 17z
m176 -57 c58 -14 155 -32 215 -39 61 -8 132 -22 159 -32 70 -24 82 -55 128
-342 9 -57 9 -89 0 -144 -7 -39 -15 -112 -18 -162 -5 -86 -19 -156 -31 -156
-3 0 -28 19 -56 43 -98 82 -272 190 -468 288 -75 38 -148 80 -164 95 -28 25
-28 26 -22 122 4 74 14 124 42 210 37 116 63 157 93 148 9 -3 64 -16 122 -31z"/>
<path d="M5680 13881 c-33 -11 -153 -71 -262 -133 -179 -101 -362 -259 -409
-354 -21 -44 -24 -61 -23 -184 0 -232 10 -238 319 -182 94 17 208 34 253 38
111 9 177 41 211 102 22 41 24 55 28 275 8 382 -15 470 -117 438z m57 -58 c16
-24 18 -58 22 -256 4 -271 -2 -344 -33 -389 -31 -47 -66 -60 -198 -75 -65 -7
-161 -22 -215 -33 -142 -30 -255 -37 -272 -17 -9 11 -13 57 -14 154 -2 133 -1
140 25 184 38 64 195 207 311 282 59 38 332 177 348 177 5 0 17 -12 26 -27z"/>
<path d="M5903 13876 c-43 -31 -48 -73 -48 -371 0 -274 1 -281 23 -328 37 -74
80 -94 243 -112 74 -9 141 -18 149 -20 46 -14 243 -45 287 -45 41 0 58 5 80
24 l28 24 0 144 c0 136 -1 146 -27 198 -71 143 -267 299 -565 450 -97 49 -139
58 -170 36z m197 -95 c170 -86 293 -172 396 -275 119 -119 128 -140 132 -289
5 -148 1 -164 -39 -175 -33 -8 -152 6 -274 33 -38 8 -125 22 -193 29 -137 16
-175 32 -207 86 -19 33 -20 51 -20 320 0 389 -8 378 205 271z"/>
<path d="M5581 13039 c-103 -13 -340 -58 -425 -81 -165 -44 -211 -137 -182
-364 18 -130 36 -170 101 -220 32 -24 48 -28 143 -35 59 -4 181 -9 272 -11
191 -3 213 4 263 83 25 42 29 58 38 195 13 189 5 326 -23 376 -31 54 -82 70
-187 57z m146 -63 c32 -38 38 -101 26 -312 -12 -202 -18 -228 -66 -272 -34
-32 -70 -35 -319 -24 -324 15 -335 24 -354 284 -9 124 4 175 57 223 21 19 49
37 61 40 172 38 260 56 343 69 55 8 111 17 125 20 53 9 104 -2 127 -28z"/>
<path d="M5902 13009 c-18 -17 -37 -50 -43 -73 -14 -48 -5 -387 11 -454 15
-64 49 -109 100 -134 50 -25 136 -27 416 -11 141 8 155 11 193 36 60 40 80 87
97 235 22 185 -3 269 -94 319 -68 38 -452 113 -577 113 -66 0 -73 -2 -103 -31z
m408 -48 c85 -17 176 -38 202 -47 123 -40 149 -113 120 -338 -10 -84 -17 -104
-42 -136 -16 -21 -42 -42 -57 -48 -16 -6 -84 -13 -153 -16 -69 -3 -166 -9
-217 -12 -104 -8 -175 6 -211 39 -35 33 -52 109 -59 267 -7 180 1 270 29 306
21 26 22 26 127 21 58 -2 176 -19 261 -36z"/>
<path d="M5028 12267 c-45 -42 -47 -104 -12 -297 28 -153 64 -334 73 -370 79
-298 94 -348 182 -592 98 -275 152 -376 273 -508 36 -39 86 -98 112 -130 38
-48 53 -60 75 -60 72 0 79 72 79 846 0 539 -8 833 -25 910 -3 12 -23 43 -45
70 -23 27 -48 63 -56 81 -27 55 -51 60 -354 67 l-276 7 -26 -24z m590 -38 c13
-5 30 -27 41 -51 10 -24 28 -49 40 -55 36 -22 50 -67 60 -190 15 -181 21 -725
12 -1143 -7 -320 -11 -381 -25 -415 l-17 -40 -22 30 c-12 16 -43 55 -69 85
-181 210 -224 277 -289 453 -152 412 -231 693 -284 1020 -39 240 -41 272 -21
302 l17 27 267 -8 c147 -4 277 -11 290 -15z"/>
<path d="M6178 12280 c-185 -6 -175 -2 -217 -80 -11 -19 -31 -46 -46 -60 -15
-14 -33 -37 -41 -52 -25 -48 -36 -398 -32 -1063 3 -607 4 -631 23 -670 17 -34
25 -40 56 -43 33 -3 38 1 75 55 21 31 82 103 134 158 72 76 104 119 133 179
87 180 259 698 302 911 9 44 24 118 35 165 23 102 45 221 60 313 12 80 1 137
-35 173 -23 23 -29 24 -152 22 -70 -1 -203 -5 -295 -8z m425 -48 c40 -41 37
-65 -70 -567 -62 -292 -240 -823 -326 -974 -23 -40 -83 -118 -133 -172 -50
-54 -102 -115 -115 -134 -28 -41 -43 -44 -61 -12 -16 30 -24 1171 -9 1465 9
189 13 217 31 248 12 19 30 39 41 44 10 6 29 32 41 58 l23 47 210 7 c116 4
226 9 245 11 57 7 102 -1 123 -21z"/>
<path d="M4386 10828 c-9 -24 -36 -113 -61 -198 -25 -85 -51 -177 -59 -205
-29 -96 -56 -237 -76 -383 -11 -81 -31 -230 -44 -332 -75 -567 -73 -911 9
-1285 54 -250 77 -322 220 -691 41 -105 93 -242 116 -305 58 -160 87 -199 145
-199 24 0 41 10 74 44 54 55 74 101 115 261 106 413 175 876 175 1182 0 159
-2 170 -100 423 -80 209 -185 554 -246 810 -19 80 -43 181 -54 225 -35 144
-110 479 -130 580 -15 71 -35 115 -54 115 -8 0 -21 -19 -30 -42z m49 -75 c6
-43 61 -295 101 -463 15 -66 22 -94 93 -391 44 -183 132 -482 185 -629 18 -52
57 -158 85 -235 73 -203 76 -222 62 -399 -33 -428 -86 -759 -172 -1084 -68
-258 -162 -352 -219 -220 -28 65 -159 412 -246 648 -89 244 -148 487 -180 750
-19 159 -15 489 10 710 15 126 24 196 75 586 11 83 29 195 40 249 23 111 143
525 152 525 4 0 10 -21 14 -47z"/>
<path d="M3400 13136 c-108 -79 -162 -171 -220 -376 -17 -63 -58 -205 -90
-315 -32 -110 -76 -265 -98 -345 -23 -80 -70 -248 -106 -375 -170 -605 -219
-843 -182 -890 16 -20 16 -20 39 8 22 26 108 243 194 487 18 52 38 104 43 115
10 21 43 113 64 180 41 128 254 689 296 780 15 33 47 103 70 155 23 52 54 118
69 145 76 136 92 252 52 359 -27 72 -49 106 -70 106 -9 0 -36 -15 -61 -34z
m82 -33 c6 -16 16 -55 22 -88 20 -104 6 -158 -94 -365 -113 -234 -263 -612
-413 -1045 -25 -71 -73 -202 -107 -290 -33 -88 -74 -196 -90 -240 -44 -124
-69 -182 -70 -162 -1 52 77 387 155 662 18 66 57 206 85 310 28 105 58 210 66
235 8 25 59 203 114 395 125 436 159 510 264 586 48 36 54 36 68 2z"/>
<path d="M8165 13154 c-26 -27 -53 -87 -66 -151 -20 -94 -4 -147 125 -413 63
-129 117 -246 121 -260 4 -14 23 -62 42 -108 18 -46 54 -142 79 -215 26 -73
52 -145 60 -162 14 -33 74 -198 164 -455 143 -405 212 -565 245 -565 19 0 20
6 19 90 -1 95 -25 209 -104 490 -21 77 -68 250 -105 385 -207 764 -292 1051
-346 1165 -31 67 -112 163 -163 194 -40 25 -50 26 -71 5z m86 -67 c63 -56 111
-131 148 -226 32 -82 53 -154 252 -861 10 -36 39 -144 65 -240 25 -96 61 -231
80 -300 19 -69 45 -165 59 -215 21 -77 46 -194 69 -325 4 -22 3 -31 -3 -25
-12 12 -117 288 -206 540 -81 231 -260 716 -319 868 -26 65 -92 210 -146 323
-110 224 -125 271 -115 357 7 62 41 147 59 147 6 -1 32 -20 57 -43z"/>
<path d="M14505 19511 c-162 -27 -289 -92 -423 -216 -130 -120 -191 -322 -195
-652 l-2 -142 -45 -3 c-38 -3 -48 -8 -67 -37 -32 -47 -30 -114 8 -231 16 -52
32 -126 35 -165 3 -38 10 -83 16 -98 13 -35 55 -57 108 -57 l40 0 0 -52 c0
-91 20 -178 55 -247 51 -99 57 -138 53 -322 -4 -196 -11 -214 -108 -290 -125
-97 -206 -145 -281 -168 -178 -54 -243 -77 -394 -140 -88 -37 -198 -77 -245
-89 -115 -29 -247 -67 -355 -102 -49 -16 -112 -34 -140 -40 -74 -16 -190 -77
-249 -130 -56 -52 -146 -173 -193 -260 -39 -73 -106 -249 -126 -330 -24 -101
-40 -284 -33 -390 7 -97 35 -323 61 -486 19 -116 19 -203 0 -329 -24 -164 -44
-372 -50 -515 -11 -250 -28 -323 -117 -505 -50 -103 -72 -169 -152 -455 -45
-160 -127 -510 -186 -794 -28 -134 -88 -508 -110 -691 -39 -312 -137 -823
-172 -894 -21 -41 -32 -50 -119 -93 -128 -62 -177 -109 -230 -223 -98 -209
-266 -460 -388 -580 -82 -80 -82 -116 -1 -164 25 -15 52 -21 94 -21 93 0 141
30 259 159 20 22 41 41 45 41 5 0 2 -57 -6 -127 -33 -312 -31 -719 4 -803 31
-72 46 -90 95 -111 l46 -20 2 -72 c3 -99 31 -151 83 -155 51 -4 91 34 122 117
l23 65 17 -31 c26 -50 83 -55 123 -10 24 27 58 113 73 187 l12 55 50 0 c45 0
53 4 79 34 36 43 87 166 123 296 51 183 88 289 147 420 85 191 102 262 102
420 0 130 0 131 -52 286 l-52 157 15 100 c24 159 98 435 242 897 128 408 157
491 214 610 71 146 149 375 160 470 7 61 25 148 84 405 9 37 15 115 16 182 0
121 1 125 85 478 31 129 51 229 100 500 7 41 16 113 20 160 13 175 28 194 56
69 9 -41 26 -108 37 -149 12 -41 52 -190 91 -330 38 -140 78 -284 89 -320 70
-235 85 -294 103 -398 22 -138 25 -331 5 -412 -7 -30 -28 -107 -46 -170 -18
-63 -41 -146 -52 -185 -15 -53 -22 -121 -28 -285 -6 -179 -13 -242 -40 -375
-49 -248 -60 -331 -60 -455 0 -63 -5 -146 -11 -185 -5 -38 -14 -151 -18 -250
-13 -270 -40 -505 -73 -645 -103 -434 -124 -554 -138 -772 -12 -184 -6 -318
25 -578 8 -63 21 -178 30 -255 26 -224 46 -336 154 -860 62 -300 91 -431 116
-525 21 -77 19 -226 -6 -340 -11 -52 -32 -149 -46 -215 -25 -117 -26 -131 -28
-550 -2 -364 -5 -438 -19 -485 -44 -147 -77 -294 -86 -385 -36 -365 -36 -366
-6 -581 44 -319 110 -625 176 -818 25 -75 38 -156 81 -490 28 -221 58 -457 66
-526 9 -69 17 -204 17 -300 1 -170 0 -178 -33 -295 -41 -144 -44 -223 -12
-308 12 -33 21 -81 21 -111 0 -115 -42 -193 -217 -402 -110 -132 -142 -190
-150 -278 -13 -145 66 -221 165 -159 20 12 25 12 44 -2 29 -20 69 -19 106 2
28 16 32 16 71 -2 40 -17 43 -17 99 0 54 16 61 16 90 1 39 -20 68 -20 122 -1
55 19 98 19 167 -1 65 -19 135 -14 163 11 26 23 60 99 60 133 0 16 -11 66 -25
113 -28 91 -32 154 -15 209 6 19 18 116 25 215 8 102 23 225 37 285 40 181 32
251 -52 460 -52 129 -61 207 -50 450 5 107 9 254 10 325 0 101 6 162 29 276
27 139 45 201 126 444 20 61 45 139 56 175 41 131 35 368 -16 735 -13 94 -33
262 -45 375 -11 113 -28 251 -36 307 -11 74 -13 112 -6 135 6 18 13 53 16 78
4 25 27 108 52 185 93 288 132 495 140 760 4 121 14 208 41 355 60 335 66 381
68 545 3 152 4 164 35 245 74 199 84 231 106 350 13 69 24 152 24 185 2 118
47 427 73 500 60 164 79 385 43 501 -17 58 -18 64 -2 110 28 83 73 121 131
110 41 -8 59 -28 86 -99 22 -56 22 -59 5 -133 -33 -150 -18 -310 47 -505 36
-106 44 -160 67 -449 20 -241 53 -397 110 -510 15 -30 31 -71 35 -90 4 -19 13
-45 21 -57 10 -16 11 -29 4 -48 -23 -61 -5 -239 65 -630 26 -146 35 -231 40
-365 9 -276 50 -505 140 -780 69 -213 80 -278 66 -367 -6 -37 -27 -205 -46
-373 -19 -168 -39 -334 -45 -370 -20 -136 -35 -341 -35 -485 1 -148 1 -152 39
-255 20 -58 46 -134 57 -170 110 -362 130 -450 135 -590 2 -58 9 -229 15 -380
13 -317 9 -355 -52 -497 -22 -51 -49 -132 -60 -180 -22 -94 -22 -100 16 -278
8 -38 20 -140 25 -225 12 -166 20 -227 41 -303 13 -45 12 -56 -15 -159 -16
-62 -29 -126 -28 -145 2 -41 35 -107 64 -127 29 -21 100 -20 168 0 59 17 105
15 182 -10 43 -13 49 -13 82 5 42 22 72 24 106 4 33 -19 71 -19 96 0 25 19 48
19 64 0 16 -19 57 -19 101 -1 29 12 38 12 59 0 30 -16 84 -18 111 -4 33 18 53
70 53 140 1 103 -33 165 -185 340 -167 193 -210 322 -157 472 31 90 28 169
-12 293 -38 116 -52 225 -44 345 9 150 34 401 54 545 11 77 33 255 50 395 25
207 37 269 60 330 76 200 189 775 197 1012 9 232 -33 544 -98 733 -22 62 -44
280 -41 400 1 33 2 170 3 305 l2 245 -48 235 c-60 290 -62 350 -15 525 17 66
45 183 60 260 16 77 45 217 65 310 69 325 106 521 120 640 8 66 24 194 35 285
66 548 42 856 -113 1461 -34 130 -57 330 -57 486 0 71 -7 183 -15 248 -8 66
-17 188 -21 270 -6 156 -28 334 -69 540 -17 87 -25 169 -28 301 -7 216 -29
336 -108 589 -26 83 -32 121 -36 227 -7 178 12 301 87 548 16 52 45 156 66
230 20 74 47 171 59 215 44 151 113 410 130 483 21 87 30 80 39 -27 12 -130
98 -591 141 -751 58 -212 76 -315 85 -471 6 -113 16 -185 35 -260 14 -57 30
-120 35 -139 5 -19 16 -87 26 -150 20 -138 71 -294 159 -480 62 -133 185 -499
295 -880 12 -41 30 -102 40 -135 72 -239 130 -491 130 -566 0 -21 -16 -82 -35
-136 -60 -168 -70 -217 -69 -344 1 -103 5 -127 34 -215 18 -54 53 -144 77
-199 50 -111 74 -181 128 -365 69 -235 112 -335 162 -367 16 -11 36 -14 63
-10 44 6 39 13 59 -83 13 -61 47 -136 73 -160 41 -38 113 -22 130 30 3 9 10
-2 16 -25 17 -59 67 -133 96 -141 77 -19 110 23 114 146 l4 88 30 6 c48 10 84
42 108 98 21 46 25 79 34 252 8 170 7 227 -9 395 -26 275 -28 311 -17 311 5 0
31 -27 58 -61 58 -72 128 -126 189 -144 97 -30 215 24 215 97 0 5 -31 42 -68
82 -132 138 -248 306 -348 501 -33 66 -70 136 -82 155 -32 52 -127 126 -200
155 -67 27 -93 50 -116 101 -42 95 -115 477 -170 894 -58 435 -75 535 -151
885 -38 174 -160 665 -197 790 -22 76 -79 221 -127 327 -53 116 -70 198 -81
388 -5 96 -16 229 -25 295 -51 410 -53 450 -29 595 76 459 82 681 24 894 -24
88 -104 281 -155 373 -54 97 -189 230 -280 275 -38 19 -146 56 -240 82 -93 26
-226 63 -295 83 -69 20 -144 39 -167 44 -23 4 -65 20 -92 34 -85 43 -311 131
-411 160 -106 31 -142 47 -239 109 -97 63 -179 141 -192 184 -7 23 -9 107 -7
222 l3 185 37 77 c42 87 54 130 65 238 l8 75 48 7 c80 11 101 41 112 163 4 44
20 120 36 170 36 110 37 170 6 216 -19 29 -29 34 -68 37 l-46 3 -6 167 c-13
356 -80 543 -241 673 -72 58 -217 132 -301 155 -69 18 -304 27 -380 15z m340
-50 c152 -31 310 -125 397 -235 98 -122 137 -275 147 -571 l6 -190 53 -3 c92
-5 102 -56 47 -232 -15 -47 -30 -119 -34 -162 -8 -98 -27 -123 -86 -115 -22 4
-46 2 -53 -2 -8 -5 -17 -47 -23 -107 -12 -130 -13 -135 -62 -234 l-42 -85 -3
-142 c-2 -79 -7 -143 -11 -143 -4 0 -16 44 -26 98 -17 93 -96 347 -114 365 -4
4 -19 -1 -32 -12 -23 -19 -24 -23 -23 -158 0 -132 1 -142 33 -220 36 -91 110
-210 162 -261 19 -19 68 -56 109 -84 92 -61 95 -64 45 -44 -122 51 -237 158
-302 281 -52 101 -115 283 -144 417 -35 165 -73 216 -115 153 -15 -22 -17 -69
-18 -383 -1 -196 -8 -469 -15 -607 -10 -191 -11 -276 -2 -360 7 -70 12 -441
13 -1010 3 -785 1 -924 -14 -1090 -24 -262 -41 -588 -33 -625 5 -24 12 -30 33
-30 52 0 57 10 127 225 79 240 219 528 410 840 184 301 310 632 354 930 24
166 43 258 75 370 30 103 33 109 118 223 66 87 103 123 278 266 l72 58 96 -30
c54 -17 138 -41 187 -52 99 -24 128 -40 75 -40 -19 0 -60 -14 -90 -30 -102
-55 -145 -73 -213 -91 -69 -17 -107 -41 -107 -65 0 -22 50 -73 99 -101 72 -42
177 -131 287 -244 109 -113 117 -128 133 -264 13 -110 60 -208 150 -316 68
-82 328 -339 380 -376 31 -21 71 -99 71 -137 0 -20 -3 -36 -7 -36 -5 0 -19 25
-31 55 -29 66 -122 163 -195 205 -117 66 -125 29 -32 -152 89 -174 109 -250
135 -514 11 -120 25 -248 31 -284 6 -36 26 -175 44 -310 44 -313 63 -380 110
-380 14 0 26 1 26 3 1 1 6 57 13 125 l11 123 38 -88 c71 -163 80 -193 73 -255
-8 -79 -41 -170 -93 -256 -114 -187 -122 -246 -59 -432 22 -63 43 -119 47
-123 13 -17 50 15 69 58 10 24 32 106 49 182 48 223 76 333 83 333 15 0 18
-60 4 -94 -8 -20 -25 -82 -36 -138 -12 -57 -37 -167 -56 -245 -65 -270 -78
-433 -49 -608 41 -255 104 -519 193 -815 22 -74 57 -196 77 -270 33 -121 64
-228 110 -387 17 -56 30 -72 48 -54 8 8 6 40 -6 118 -9 60 -28 205 -42 323
-47 404 -55 475 -65 555 -23 176 -41 496 -47 790 -3 171 -3 307 1 304 17 -16
39 -173 46 -344 5 -104 14 -255 20 -335 5 -80 13 -181 16 -225 19 -280 93
-898 119 -995 16 -60 44 -105 66 -105 12 0 14 32 13 179 l-2 180 28 -110 c15
-60 32 -121 38 -135 20 -50 65 -90 146 -128 121 -59 155 -93 222 -224 31 -61
75 -143 98 -180 22 -37 46 -76 51 -85 42 -72 147 -212 210 -279 41 -45 75 -88
75 -97 0 -41 -121 -61 -187 -30 -19 9 -76 59 -127 110 -76 76 -97 92 -115 87
-13 -3 -25 -11 -27 -18 -3 -7 3 -97 13 -201 12 -133 17 -266 16 -447 l-1 -258
-28 -57 c-29 -57 -76 -94 -95 -75 -4 4 -15 82 -24 173 -8 91 -20 201 -25 245
-5 44 -12 128 -15 188 -7 103 -16 130 -37 109 -11 -11 5 -281 28 -447 8 -60
17 -187 21 -282 7 -197 -1 -236 -46 -231 -69 8 -122 191 -186 633 -47 328 -50
345 -72 345 -22 0 -17 -37 64 -540 34 -207 36 -230 23 -273 -12 -45 -15 -48
-44 -45 -26 3 -35 11 -55 53 -13 28 -39 111 -57 185 -35 139 -111 502 -116
555 -2 19 -9 31 -20 33 -30 6 -25 -40 36 -333 47 -225 47 -245 -8 -231 -42 10
-92 136 -191 476 -20 69 -50 154 -66 189 -158 337 -171 474 -73 757 54 153 52
206 -14 474 -28 113 -72 272 -97 354 -25 82 -44 154 -42 160 5 15 120 -292
197 -526 77 -234 115 -320 159 -363 28 -26 33 -27 46 -14 14 13 14 24 1 90 -8
41 -19 86 -25 101 -22 58 -81 322 -106 478 -40 245 -142 776 -176 915 -20 82
-54 184 -102 300 -25 61 -58 166 -73 235 -15 69 -32 128 -38 132 -22 15 -78 8
-124 -16 -86 -44 -151 -134 -152 -211 -1 -34 -16 3 -29 71 -17 92 1 152 71
226 59 62 104 155 92 192 -4 11 -41 57 -83 101 -42 45 -102 117 -133 160 -53
73 -59 88 -83 195 -15 63 -37 153 -50 200 -13 47 -26 99 -29 115 l-6 30 15
-30 c8 -16 28 -64 46 -105 116 -277 215 -434 291 -465 68 -27 101 13 133 160
17 73 17 101 6 350 -7 148 -19 329 -27 400 -8 72 -14 171 -14 220 -1 184 -41
419 -95 550 -72 173 -230 473 -274 518 l-28 28 -32 -27 c-93 -78 -155 -347
-151 -659 3 -194 3 -195 -21 -195 -19 0 -20 4 -15 33 3 17 9 79 12 137 7 119
-7 173 -49 189 -15 6 -72 3 -163 -10 -258 -34 -374 -21 -559 67 -55 26 -102
50 -105 54 -11 13 -88 32 -109 25 -12 -3 -32 -27 -45 -53 -36 -70 -111 -196
-169 -281 -28 -42 -80 -128 -115 -191 -191 -344 -238 -504 -197 -675 14 -62
54 -152 93 -215 38 -59 157 -298 215 -430 74 -170 112 -271 144 -387 25 -92
27 -111 28 -308 0 -198 1 -212 22 -245 30 -49 74 -89 109 -99 32 -9 94 -3 94
9 0 4 15 30 33 56 18 27 39 63 47 79 8 17 35 62 59 100 95 150 152 301 205
545 56 254 55 252 53 95 -2 -135 -3 -141 -29 -180 -47 -67 -40 -96 63 -241 33
-47 59 -89 57 -95 -2 -6 -27 23 -55 63 -78 108 -79 110 -104 106 -34 -5 -60
-57 -62 -125 -2 -57 1 -63 80 -193 44 -74 94 -162 109 -195 15 -33 41 -79 58
-102 16 -24 26 -46 23 -50 -10 -9 -7 -12 -77 122 -79 151 -93 176 -149 253
-39 54 -49 62 -77 62 -29 0 -36 -8 -89 -91 -104 -164 -131 -246 -105 -323 24
-74 95 -111 255 -132 122 -16 200 -46 253 -97 20 -19 32 -41 32 -57 0 -14 9
-75 21 -136 12 -67 24 -186 29 -309 5 -110 14 -225 20 -255 6 -30 15 -152 20
-270 12 -297 27 -403 80 -600 43 -160 43 -157 18 -156 -17 1 -24 -8 -33 -45
-14 -54 -30 -163 -46 -314 -12 -121 -60 -365 -90 -459 -11 -33 -29 -114 -41
-180 -28 -153 -32 -501 -8 -661 20 -130 22 -1045 3 -1085 -9 -20 -12 77 -13
455 0 353 -4 517 -15 620 -9 77 -20 219 -25 315 -18 320 -56 446 -179 588 -66
77 -173 142 -232 142 -56 -1 -113 -33 -133 -74 -23 -50 -22 -108 8 -261 49
-254 79 -602 90 -1020 4 -183 4 -185 -5 -55 -5 74 -13 209 -19 300 -13 208
-64 663 -89 795 -11 55 -25 133 -31 173 -13 81 -31 107 -76 117 -30 6 -32 4
-51 -42 -11 -26 -35 -91 -52 -143 -29 -86 -60 -156 -61 -138 0 4 9 30 20 57
11 28 30 89 43 135 l24 84 -39 30 c-24 18 -57 32 -86 37 -75 10 -159 33 -265
72 -97 35 -126 38 -194 18 -18 -6 -25 0 -47 43 -36 71 -66 92 -134 92 -50 0
-58 -3 -88 -35 -18 -19 -40 -53 -50 -75 -20 -45 -22 -46 -50 -25 -28 21 -73
18 -156 -10 -40 -14 -98 -34 -128 -44 -30 -11 -94 -26 -142 -34 -71 -12 -91
-19 -112 -42 -14 -15 -26 -30 -26 -32 0 -49 122 -379 166 -448 64 -102 156
-608 153 -840 -2 -86 -2 -83 -16 70 -15 166 -37 245 -67 245 -14 0 -16 21 -16
148 0 188 -17 259 -116 484 -40 92 -87 212 -105 267 -40 126 -45 133 -87 125
-64 -13 -61 -3 -137 -570 -25 -187 -49 -401 -54 -475 -6 -96 -9 -114 -10 -64
-2 119 37 554 64 706 52 291 51 283 29 336 -41 98 -122 118 -241 58 -132 -66
-230 -210 -279 -413 -7 -31 -21 -158 -29 -282 -9 -124 -20 -266 -25 -316 -5
-50 -10 -321 -10 -602 0 -282 -3 -512 -6 -512 -21 0 -25 94 -25 520 0 335 5
510 16 625 31 330 16 552 -55 807 -37 134 -89 435 -96 553 -8 129 -42 276 -66
283 -10 2 -18 8 -18 13 0 5 16 70 35 146 43 167 73 417 84 699 5 111 11 206
15 212 3 5 10 97 15 203 7 130 18 240 36 334 32 176 29 166 67 189 77 45 114
57 230 76 204 34 273 82 272 188 -1 47 -9 73 -48 151 -26 52 -60 113 -77 137
-16 23 -29 47 -29 53 0 18 -33 29 -57 20 -44 -17 -94 -80 -173 -216 -29 -51
-54 -93 -57 -93 -9 0 66 130 135 235 l74 110 -5 57 c-6 72 -34 132 -63 136
-27 4 -57 -26 -103 -102 -33 -53 -51 -69 -51 -46 0 6 4 10 9 10 5 0 26 28 47
63 20 34 47 72 58 85 29 33 29 116 -1 157 -19 27 -22 47 -26 180 -3 83 -3 146
-1 140 2 -5 17 -77 34 -160 54 -271 100 -397 237 -640 126 -223 128 -225 180
-225 58 0 91 21 134 82 37 55 37 52 30 308 -3 110 14 205 65 365 53 166 227
547 326 711 72 121 99 200 105 309 5 79 2 102 -22 179 -48 160 -164 385 -317
615 -38 57 -89 143 -113 190 -25 47 -51 94 -59 105 -26 32 -74 22 -206 -44
-213 -107 -327 -123 -578 -80 -157 27 -188 22 -215 -30 -16 -30 -18 -50 -13
-145 4 -60 9 -125 12 -142 6 -29 4 -33 -15 -33 -20 0 -21 4 -21 138 0 295 -33
531 -88 638 -24 45 -76 104 -92 104 -34 0 -145 -193 -285 -496 -71 -154 -101
-299 -110 -540 -4 -88 -15 -236 -26 -330 -10 -94 -19 -203 -19 -241 0 -38 -5
-117 -11 -174 -17 -171 16 -356 76 -426 27 -31 34 -35 62 -29 41 9 117 92 162
175 18 35 69 142 112 239 43 98 79 172 79 165 0 -7 -13 -63 -29 -125 -16 -62
-37 -153 -47 -201 -9 -50 -27 -103 -39 -120 -12 -18 -43 -63 -69 -102 -27 -38
-79 -100 -117 -137 -60 -59 -69 -73 -69 -103 0 -46 29 -102 86 -167 67 -75 88
-127 81 -202 -3 -34 -10 -72 -15 -86 -10 -24 -10 -23 -17 15 -15 86 -105 175
-198 195 -69 16 -97 4 -97 -43 0 -42 -50 -213 -90 -307 -69 -164 -115 -317
-150 -500 -11 -58 -24 -121 -29 -140 -5 -19 -19 -87 -31 -150 -12 -63 -27
-144 -35 -180 -8 -36 -19 -105 -25 -155 -16 -137 -57 -341 -106 -533 -24 -96
-44 -189 -44 -208 0 -29 3 -34 23 -34 49 0 88 74 167 310 55 167 204 570 208
565 4 -3 -35 -146 -74 -275 -53 -178 -96 -374 -101 -465 -6 -98 -5 -104 35
-220 55 -164 69 -257 54 -379 -14 -112 -27 -153 -94 -301 -67 -149 -80 -183
-138 -384 -28 -96 -57 -188 -64 -205 -59 -132 -66 -144 -91 -150 -14 -4 -31
-4 -37 0 -12 8 -4 80 18 166 26 101 72 388 63 394 -17 10 -28 -7 -38 -59 -65
-318 -65 -320 -90 -427 -6 -25 -18 -76 -26 -115 -30 -127 -66 -216 -93 -226
-32 -12 -46 0 -62 56 -11 39 -9 63 13 192 64 361 94 600 78 616 -21 21 -31 -8
-45 -124 -49 -387 -65 -482 -96 -604 -10 -38 -21 -88 -25 -110 -13 -76 -65
-150 -102 -143 -38 7 -45 44 -39 208 3 85 9 191 15 235 34 269 58 500 53 514
-3 9 -30 16 -33 9 0 -2 -7 -61 -14 -133 -18 -177 -65 -567 -70 -583 -3 -9 -13
-11 -27 -7 -37 12 -55 33 -74 88 -29 82 -31 470 -5 726 13 126 17 200 11 211
-24 45 -73 28 -135 -48 -22 -26 -62 -66 -90 -88 -47 -37 -53 -39 -123 -39 -65
0 -76 3 -93 24 -10 13 -19 27 -19 31 0 5 35 43 78 87 71 72 192 242 281 393
17 30 36 62 41 70 5 8 29 55 52 104 50 104 76 129 216 201 91 47 98 53 123
104 15 29 35 95 45 145 27 142 30 138 26 -28 -3 -85 -2 -167 2 -181 8 -30 40
-34 55 -7 22 41 53 194 71 350 10 92 24 199 29 237 20 138 64 715 82 1075 7
158 27 302 44 318 16 15 -20 -932 -41 -1073 -15 -100 -36 -276 -73 -610 -28
-250 -42 -357 -47 -378 -7 -24 25 -35 41 -14 6 9 17 42 24 74 7 32 25 103 41
159 16 55 45 158 64 230 18 71 46 167 60 214 80 258 124 431 176 695 55 277
51 472 -15 700 -19 66 -41 163 -50 215 -18 104 -40 200 -56 242 -7 17 -7 32
-1 44 8 14 13 7 25 -37 24 -84 44 -166 62 -259 29 -146 63 -239 91 -252 15 -7
28 -8 33 -2 23 26 75 224 79 301 4 92 -6 119 -103 282 -48 81 -85 200 -85 273
0 32 10 64 34 109 18 35 44 92 56 127 13 34 24 61 26 59 2 -2 7 -48 10 -103 8
-117 16 -144 44 -144 25 0 44 30 63 100 16 58 18 70 67 455 17 132 35 269 40
305 5 36 14 124 20 195 16 193 31 245 121 421 78 153 89 187 69 199 -10 6 -25
0 -117 -49 -54 -29 -158 -148 -178 -205 -11 -28 -23 -51 -27 -51 -4 0 -8 24
-8 54 0 54 0 54 78 133 42 43 142 141 222 218 240 231 279 295 310 516 12 86
28 117 94 187 82 88 262 239 331 279 87 50 106 100 52 136 -13 8 -58 24 -102
36 -44 12 -107 38 -140 59 -33 20 -85 42 -115 48 l-55 11 75 23 c41 12 124 37
184 56 109 34 156 42 156 26 0 -4 42 -42 92 -83 127 -102 242 -222 289 -299
64 -108 93 -217 149 -570 51 -317 128 -512 365 -920 200 -345 325 -597 370
-745 63 -210 77 -245 102 -265 14 -11 36 -20 48 -20 19 0 23 7 28 48 3 26 2
92 -3 147 -5 55 -9 154 -10 220 0 66 -8 179 -18 250 -15 117 -17 222 -14 1035
1 588 6 951 14 1037 9 107 8 194 -5 475 -11 230 -15 429 -11 603 5 256 5 261
-16 288 -36 46 -79 21 -99 -58 -5 -22 -24 -94 -40 -160 -57 -227 -154 -429
-249 -516 -53 -49 -167 -119 -192 -119 -8 0 20 23 61 51 41 28 89 65 108 82
74 69 165 244 190 365 19 93 9 248 -18 275 -34 34 -87 -86 -132 -297 -16 -76
-30 -141 -33 -143 -2 -2 -5 54 -8 124 -4 125 -5 130 -45 218 -52 114 -63 154
-63 238 0 41 -6 80 -15 98 -14 27 -19 29 -54 23 -22 -3 -47 -1 -59 5 -24 13
-42 67 -42 123 0 21 -13 87 -30 148 -49 180 -37 241 45 226 61 -12 64 -4 64
173 0 149 21 329 50 439 15 55 79 149 139 204 64 60 180 135 246 161 126 48
327 60 481 28z m-326 -2043 c-1 -183 4 -458 11 -611 11 -220 11 -302 2 -395
-18 -174 -21 -1934 -4 -2022 7 -36 17 -175 22 -310 5 -135 12 -270 16 -301 4
-36 3 -59 -4 -63 -15 -9 -29 20 -64 137 -74 248 -186 486 -393 837 -97 163
-222 407 -265 515 -54 136 -88 269 -125 491 -37 226 -63 343 -94 423 -41 110
-171 262 -330 389 l-93 74 42 25 c101 60 324 146 507 194 181 48 338 121 418
196 122 113 228 338 290 613 26 111 37 140 57 140 6 0 9 -126 7 -332z m305
315 c4 -9 18 -70 32 -136 55 -262 156 -473 280 -586 99 -91 215 -144 491 -226
172 -52 359 -128 437 -177 47 -31 48 -32 28 -47 -11 -9 -54 -43 -96 -75 -131
-102 -248 -241 -297 -353 -34 -78 -67 -208 -94 -378 -47 -287 -99 -477 -176
-643 -22 -46 -39 -85 -39 -87 0 -6 -141 -256 -192 -340 -150 -247 -293 -550
-375 -795 -53 -160 -66 -190 -78 -178 -8 8 12 387 33 628 14 168 16 320 14
1085 -1 557 -6 930 -13 996 -8 78 -8 177 0 365 6 143 11 415 11 605 0 190 3
349 7 352 11 11 21 8 27 -10z m245 -208 c17 -55 40 -147 51 -203 11 -57 31
-129 45 -159 14 -31 23 -58 21 -60 -9 -9 -69 83 -106 162 -21 44 -43 107 -49
139 -13 71 -15 244 -3 231 5 -6 23 -55 41 -110z m-782 -12 c-6 -118 -20 -173
-68 -266 -30 -60 -86 -147 -94 -147 -2 0 7 30 21 68 15 37 37 119 50 182 27
130 73 270 87 270 6 0 8 -41 4 -107z m-1438 -1116 c28 -15 72 -38 99 -52 26
-13 76 -32 112 -41 36 -9 71 -21 77 -26 20 -16 -2 -45 -57 -73 -61 -31 -165
-117 -297 -247 -113 -111 -123 -130 -144 -276 -22 -158 -64 -228 -239 -402
-146 -145 -340 -330 -345 -330 -2 0 -7 21 -10 48 -3 26 -13 92 -21 147 -22
142 -21 426 1 530 22 108 69 243 118 340 106 213 220 330 380 392 54 20 76 23
168 20 93 -3 114 -7 158 -30z m3975 -3 c95 -38 204 -131 264 -224 72 -111 159
-321 198 -475 28 -108 25 -383 -5 -590 -13 -88 -25 -161 -26 -163 -2 -2 -61
53 -131 121 -71 68 -147 139 -168 158 -72 62 -198 222 -233 295 -18 39 -38 99
-44 135 -18 110 -40 183 -64 214 -68 88 -263 265 -372 339 -40 26 -73 54 -73
62 0 7 19 18 43 25 98 26 135 41 201 82 66 39 76 42 166 48 122 8 171 3 244
-27z m-4142 -1110 c59 -85 87 -243 99 -564 5 -129 9 -248 11 -265 7 -107 -37
-385 -86 -535 -34 -106 -93 -251 -140 -347 -19 -39 -57 -118 -85 -175 -78
-162 -148 -240 -188 -207 -43 37 -78 201 -69 328 4 53 11 175 16 271 6 96 14
209 20 250 5 41 14 167 20 280 6 113 15 232 21 264 25 140 94 308 247 603 85
163 87 165 134 97z m4061 -67 c249 -463 273 -544 297 -1002 5 -99 17 -283 26
-410 20 -292 20 -412 0 -498 -28 -121 -54 -149 -102 -109 -115 96 -334 583
-411 917 -27 118 -28 125 -26 400 4 425 25 610 83 730 24 49 58 88 70 80 5 -3
33 -51 63 -108z m255 -191 c67 -43 149 -137 182 -209 35 -73 59 -201 85 -452
8 -77 19 -167 25 -200 12 -71 13 -654 1 -673 -17 -28 -43 80 -61 253 -5 55
-22 179 -35 275 -14 96 -32 240 -40 320 -32 317 -59 423 -150 594 -70 131 -70
132 -7 92z m-4654 -21 c-8 -19 -32 -65 -54 -101 -57 -92 -90 -198 -107 -344
-8 -69 -27 -224 -43 -345 -16 -121 -38 -302 -50 -402 -27 -243 -49 -348 -67
-329 -4 3 -8 138 -9 299 -3 470 48 873 132 1053 32 69 88 129 174 187 36 25
41 21 24 -18z m1471 -51 c9 -4 28 -30 42 -58 34 -67 102 -180 173 -286 83
-123 204 -349 252 -470 34 -87 42 -120 46 -193 6 -125 -10 -188 -81 -315 -64
-114 -71 -127 -167 -327 -212 -440 -283 -711 -239 -914 17 -79 -2 -148 -55
-205 -26 -28 -51 -46 -65 -46 -31 0 -71 48 -132 159 -29 53 -61 108 -71 123
-60 88 -149 345 -177 512 -21 123 -69 290 -119 417 -55 136 -114 326 -162 519
-17 69 -51 193 -75 275 -86 294 -124 557 -96 655 7 24 11 25 72 22 35 -1 100
-9 144 -18 115 -21 253 -19 350 6 45 11 136 48 210 85 71 36 130 65 131 65 1
0 10 -3 19 -6z m1793 -38 c255 -128 357 -145 645 -106 82 11 153 18 157 15 23
-14 29 -105 15 -220 -26 -210 -34 -247 -98 -465 -14 -47 -49 -170 -77 -275
-97 -354 -108 -390 -149 -488 -51 -120 -77 -209 -136 -463 -72 -312 -92 -363
-223 -584 -129 -217 -136 -221 -214 -144 -59 58 -73 111 -57 217 35 224 -51
527 -276 979 -41 81 -98 191 -129 245 -86 154 -103 252 -69 410 21 97 192 442
305 613 41 63 95 149 118 190 67 116 70 120 85 120 9 0 55 -20 103 -44z m1901
-1747 c1 -57 -6 -110 -19 -160 -11 -41 -30 -119 -41 -174 -27 -133 -59 -258
-69 -268 -15 -16 -72 181 -72 250 0 73 13 110 83 228 26 44 57 112 69 150 34
109 31 103 40 80 5 -11 9 -59 9 -106z m-5676 74 c4 -21 28 -78 53 -128 26 -49
63 -120 82 -157 29 -56 34 -76 34 -130 -1 -69 -49 -249 -69 -255 -12 -4 -30
58 -68 247 -13 63 -33 147 -45 185 -20 67 -30 242 -14 266 11 19 22 8 27 -28z
m741 -118 c4 -27 2 -70 -3 -95 -6 -25 -24 -107 -40 -184 -17 -76 -32 -141 -35
-143 -2 -3 -10 5 -16 18 -7 12 -29 40 -49 63 -52 57 -81 108 -81 142 0 23 15
44 66 94 36 36 82 91 101 123 40 64 47 62 57 -18z m4224 18 c22 -32 64 -83 94
-113 65 -65 79 -88 71 -121 -5 -22 -69 -115 -100 -147 -7 -8 -18 -22 -23 -33
-13 -23 -30 -25 -30 -4 0 9 -16 81 -35 161 -35 145 -49 314 -25 314 5 0 27
-26 48 -57z m-5029 -365 c19 -95 40 -191 48 -213 28 -77 43 -181 49 -330 6
-135 4 -164 -20 -290 -50 -267 -99 -464 -181 -730 -25 -82 -61 -213 -81 -290
-34 -133 -60 -207 -49 -140 10 60 65 515 84 695 22 203 38 527 46 976 5 268 7
299 30 385 14 52 25 97 25 102 0 4 4 7 8 7 4 0 23 -78 41 -172z m5840 96 c30
-108 32 -137 35 -504 4 -401 26 -720 87 -1235 22 -187 43 -351 46 -365 3 -14
3 -22 -1 -18 -4 3 -23 64 -41 135 -38 146 -73 266 -116 403 -55 171 -118 442
-159 683 -33 194 -24 353 31 587 17 69 41 181 55 250 26 123 32 145 40 137 3
-2 13 -35 23 -73z m-1523 -176 c13 -38 20 -68 16 -68 -11 0 -52 65 -61 97 -9
32 8 83 17 53 3 -8 15 -45 28 -82z m-2841 -34 c-15 -25 -29 -43 -32 -40 -5 5
33 130 46 151 3 6 7 -7 9 -28 2 -27 -4 -51 -23 -83z m3871 -2 c6 -4 16 -41 23
-82 16 -86 59 -222 106 -330 18 -41 45 -113 59 -160 34 -112 140 -643 172
-861 33 -229 57 -344 106 -524 53 -196 57 -215 48 -215 -13 0 -69 143 -140
360 -66 200 -136 382 -298 765 -44 105 -92 231 -107 280 -15 50 -61 162 -103
250 l-77 160 0 90 c0 50 3 102 8 118 12 42 76 107 132 133 56 27 56 27 71 16z
m-4841 -21 c106 -48 140 -111 133 -248 -4 -86 -6 -93 -80 -248 -43 -88 -85
-187 -94 -220 -9 -33 -39 -114 -66 -180 -189 -460 -263 -654 -380 -995 -39
-113 -77 -218 -86 -235 -24 -46 -25 -11 -2 75 43 158 99 409 114 515 24 164
41 258 113 614 60 299 99 445 153 566 46 104 83 221 101 313 13 71 23 75 94
43z m1066 -67 c20 -88 13 -113 -65 -232 -41 -62 -89 -142 -108 -177 -18 -36
-36 -65 -40 -65 -13 0 -8 141 7 212 14 67 34 109 101 203 72 101 94 113 105
59z m2712 -26 c82 -118 117 -182 126 -238 12 -65 19 -230 10 -230 -3 0 -28 44
-55 98 -27 53 -53 99 -57 100 -4 2 -22 31 -40 64 -18 32 -42 78 -55 101 -19
35 -22 51 -17 97 4 30 9 58 12 63 12 19 36 2 76 -55z m-2566 -246 c101 -182
122 -256 84 -304 -33 -41 -96 -66 -226 -88 -78 -13 -139 -30 -175 -48 -30 -15
-58 -29 -63 -30 -12 -6 29 93 85 203 67 133 159 282 199 323 38 39 44 36 96
-56z m2458 41 c47 -65 275 -491 275 -514 0 -5 -33 10 -74 32 -62 33 -89 42
-159 49 -205 21 -270 68 -253 184 12 76 132 296 162 296 8 0 29 -21 49 -47z
m-2792 -298 c-15 -30 -29 -53 -31 -51 -4 5 46 106 53 106 3 0 -7 -25 -22 -55z
m-1616 22 c-3 -8 -12 -123 -21 -258 -17 -252 -36 -466 -61 -674 -39 -328 -46
-377 -57 -427 l-13 -53 -3 55 c-4 61 12 294 33 495 8 72 17 168 20 215 5 74
67 531 79 585 3 11 7 32 11 48 3 15 8 27 11 27 3 0 4 -6 1 -13z m6292 -297
c21 -141 30 -228 71 -650 11 -113 24 -250 30 -305 17 -175 19 -205 15 -205
-10 0 -38 125 -55 248 -52 370 -112 1017 -109 1177 1 56 7 27 48 -265z m128
-827 c-3 -10 -5 -4 -5 12 0 17 2 24 5 18 2 -7 2 -21 0 -30z m-1477 -1113 c0
-14 4 -40 10 -58 5 -19 17 -97 26 -175 23 -199 22 -466 -5 -687 -11 -96 -28
-233 -36 -305 -19 -162 -48 -345 -79 -495 -47 -225 -84 -406 -102 -495 -9 -49
-21 -99 -25 -110 -4 -11 -8 147 -8 350 -1 254 -6 414 -16 510 -31 293 -8 613
60 821 29 90 70 315 85 469 13 139 29 262 38 283 7 21 52 -71 52 -108z m-3568
-70 c18 -221 53 -423 111 -642 58 -218 70 -434 41 -764 -11 -135 -15 -274 -12
-533 2 -198 -1 -340 -5 -328 -8 20 -93 425 -137 652 -33 172 -59 335 -75 480
-8 77 -24 212 -35 300 -31 257 -33 342 -15 560 16 200 53 414 77 442 21 25 39
-37 50 -167z m1545 -352 c58 -64 80 -164 63 -297 -13 -108 -41 -227 -71 -303
-11 -28 -24 -95 -29 -149 -5 -54 -14 -138 -19 -186 -6 -49 -15 -142 -21 -208
-13 -130 -45 -270 -84 -362 l-24 -58 -6 35 c-3 19 -7 94 -10 165 -6 153 -27
320 -62 500 -31 158 -50 213 -124 375 -65 142 -120 304 -120 355 0 28 4 36 23
39 12 3 63 13 112 22 50 9 124 29 165 44 158 59 176 61 207 28z m563 -13 c92
-35 252 -75 295 -75 12 0 30 -9 40 -20 15 -17 16 -25 5 -72 -16 -68 -69 -205
-131 -337 -27 -57 -60 -139 -74 -182 -35 -113 -73 -314 -85 -459 -23 -272 -30
-356 -30 -375 -1 -17 -3 -15 -16 9 -45 82 -87 275 -99 456 -15 229 -44 413
-79 518 -65 190 -74 381 -23 493 40 91 59 95 197 44z m-1391 -79 c52 -27 63
-94 35 -216 -40 -177 -76 -497 -94 -845 -26 -500 -56 -932 -76 -1065 -36 -245
-58 -314 -182 -570 -44 -91 -93 -194 -109 -230 -16 -36 -49 -96 -73 -135 -24
-38 -54 -89 -67 -112 -14 -24 -29 -43 -34 -43 -12 0 -11 264 1 398 5 57 25
176 45 265 74 343 75 350 75 887 1 338 5 532 15 640 8 85 19 232 25 325 6 94
15 200 20 237 12 78 57 210 95 274 59 101 195 204 267 204 16 0 41 -6 57 -14z
m2205 -20 c72 -41 92 -59 146 -129 87 -116 124 -250 140 -508 6 -96 17 -236
25 -313 11 -102 15 -272 15 -655 0 -572 0 -577 79 -951 38 -179 53 -334 49
-510 l-3 -135 -58 94 c-59 94 -272 512 -323 632 -40 96 -51 139 -78 309 -30
188 -51 474 -81 1090 -18 362 -51 685 -86 840 -36 158 -31 217 24 250 46 28
82 25 151 -14z m-1970 -86 c14 -47 55 -152 91 -235 88 -199 113 -276 126 -398
13 -111 6 -377 -11 -492 -42 -271 -59 -357 -117 -565 -46 -168 -77 -298 -117
-503 -73 -366 -86 -446 -86 -521 0 -76 27 -293 54 -436 8 -41 13 -77 11 -79
-8 -7 -120 255 -173 404 -33 91 -60 208 -77 325 -19 133 -19 181 1 305 33 217
44 337 59 637 23 480 47 808 76 1043 10 85 66 498 75 552 5 33 42 69 55 55 4
-4 19 -45 33 -92z m1662 45 c42 -148 114 -750 134 -1125 6 -102 14 -246 20
-320 5 -74 12 -198 15 -275 8 -197 22 -341 46 -480 30 -174 23 -322 -26 -508
-33 -128 -53 -182 -164 -452 -38 -92 -72 -150 -58 -100 12 43 37 175 53 285
24 167 15 328 -30 545 -19 94 -51 247 -70 340 -19 94 -58 252 -85 353 -107
389 -134 564 -135 877 -1 268 -1 269 147 619 26 60 54 135 63 165 9 31 22 71
30 89 19 45 45 39 60 -13z m-239 -351 c-84 -186 -115 -341 -103 -501 7 -78 6
-83 -13 -83 -29 0 -47 -71 -61 -235 -15 -187 -31 -257 -24 -110 11 230 45 501
80 630 36 131 149 413 161 401 2 -2 -16 -48 -40 -102z m-1170 -811 c-2 -16 -4
-3 -4 27 0 30 2 43 4 28 2 -16 2 -40 0 -55z m1043 -8 c0 -88 32 -271 81 -458
27 -106 70 -271 94 -367 51 -197 117 -517 141 -684 15 -107 15 -117 -5 -261
-19 -134 -92 -480 -104 -492 -6 -6 -70 189 -97 294 -43 174 -71 374 -76 553
-5 141 -13 218 -44 395 -21 121 -46 282 -55 358 -15 126 -15 146 -1 240 21
138 46 368 46 429 0 30 4 47 10 43 6 -3 10 -26 10 -50z m-1553 3 c-3 -8 -6 -5
-6 6 -1 11 2 17 5 13 3 -3 4 -12 1 -19z m572 -169 c6 -58 20 -151 31 -208 11
-56 20 -126 20 -156 0 -68 -31 -294 -72 -520 -23 -126 -32 -219 -38 -360 -11
-275 -43 -449 -133 -730 l-42 -129 -33 134 c-48 199 -82 408 -82 514 0 94 14
183 84 521 36 176 90 392 131 530 47 157 89 372 102 520 7 77 7 78 14 35 4
-25 12 -93 18 -151z m-84 -14 c-9 -58 -34 -173 -55 -257 -106 -412 -149 -572
-149 -558 -1 22 71 323 112 470 42 148 83 338 94 435 4 40 9 58 11 42 2 -16
-4 -75 -13 -132z m1164 -140 c10 -44 49 -196 85 -338 36 -142 66 -268 65 -280
-1 -20 -26 74 -138 510 -39 151 -72 332 -70 378 1 11 9 -27 19 -85 11 -58 28
-141 39 -185z m-1662 143 c-2 -13 -4 -3 -4 22 0 25 2 35 4 23 2 -13 2 -33 0
-45z m630 -30 c-3 -8 -6 -5 -6 6 -1 11 2 17 5 13 3 -3 4 -12 1 -19z m1528
-443 c17 -243 50 -456 86 -565 20 -62 265 -553 332 -666 98 -167 109 -190 105
-210 -3 -14 -15 0 -46 51 -106 173 -133 212 -161 237 -42 37 -57 35 -100 -11
-77 -83 -142 -255 -157 -413 -8 -77 -19 -90 -22 -25 -4 84 -15 143 -33 179
-23 46 -49 61 -82 49 -29 -11 -218 -244 -255 -315 -22 -43 -27 -47 -30 -28 -4
25 70 361 76 343 2 -6 -1 -34 -7 -61 -15 -69 -14 -100 4 -106 30 -12 80 75
166 286 75 185 106 280 135 415 39 185 41 281 10 465 -28 165 -42 337 -49 595
-6 190 3 119 28 -220z m-2174 122 c-12 -219 -31 -419 -52 -529 -16 -89 -14
-266 5 -375 31 -174 134 -472 224 -648 52 -101 67 -119 88 -111 19 7 16 60
-12 194 -8 41 -13 76 -11 78 2 2 14 -42 26 -98 13 -57 34 -147 47 -200 13 -53
24 -112 24 -130 l0 -33 -29 50 c-16 28 -49 73 -73 101 -23 28 -68 83 -98 122
-30 39 -65 76 -77 83 -30 16 -67 0 -87 -38 -18 -36 -36 -132 -36 -195 0 -26
-4 -48 -10 -48 -5 0 -10 17 -10 38 0 20 -11 89 -24 153 -26 127 -69 224 -133
298 -41 49 -69 52 -105 14 -22 -24 -168 -240 -197 -291 -5 -9 -12 -14 -15 -11
-7 7 44 103 125 234 37 61 95 169 127 240 33 72 77 166 100 211 85 170 114
266 151 499 17 108 49 478 52 598 0 17 3 26 6 19 3 -7 0 -108 -6 -225z m1864
-570 c14 -65 25 -126 24 -135 -1 -20 -45 174 -53 233 -9 65 2 28 29 -98z
m-1558 51 c-3 -8 -6 -5 -6 6 -1 11 2 17 5 13 3 -3 4 -12 1 -19z m-10 -50 c-3
-8 -6 -5 -6 6 -1 11 2 17 5 13 3 -3 4 -12 1 -19z m-46 -233 c-22 -110 -40
-192 -40 -182 -1 26 72 403 76 391 2 -5 -15 -99 -36 -209z m1669 -48 c12 -65
20 -126 18 -135 -2 -9 -12 33 -22 93 -10 61 -20 124 -23 140 -3 17 -3 28 0 25
3 -3 16 -59 27 -123z m-1713 -234 c-2 -16 -4 -3 -4 27 0 30 2 43 4 28 2 -16 2
-40 0 -55z m1740 35 c-3 -7 -5 -2 -5 12 0 14 2 19 5 13 2 -7 2 -19 0 -25z
m-2201 -281 c76 -101 114 -214 139 -417 15 -113 15 -150 4 -302 -7 -95 -14
-373 -15 -618 -2 -258 -7 -479 -14 -525 -15 -106 -47 -229 -76 -285 -24 -49
-94 -136 -151 -188 -29 -26 -91 -62 -108 -62 -16 0 -111 363 -144 550 -69 385
-82 537 -61 695 5 39 14 117 19 174 10 95 52 281 81 356 6 17 16 86 21 155 6
68 17 140 25 160 15 34 152 251 202 318 13 17 29 32 36 32 6 0 25 -20 42 -43z
m2731 21 c33 -37 203 -317 219 -360 8 -22 14 -75 14 -118 0 -54 8 -103 25
-161 66 -220 105 -481 105 -701 0 -136 -50 -484 -100 -688 -26 -109 -102 -384
-107 -390 -12 -13 -104 53 -169 124 -90 96 -116 147 -150 291 -27 109 -27 113
-29 550 -1 242 -5 447 -8 455 -4 8 -11 95 -17 192 -18 293 14 538 90 693 29
59 84 135 99 135 4 0 17 -10 28 -22z m-2240 -50 c-3 -8 -6 -5 -6 6 -1 11 2 17
5 13 3 -3 4 -12 1 -19z m1680 0 c-3 -8 -6 -5 -6 6 -1 11 2 17 5 13 3 -3 4 -12
1 -19z m-10 -50 c-3 -7 -5 -2 -5 12 0 14 2 19 5 13 2 -7 2 -19 0 -25z m-1748
-252 c41 -50 84 -107 97 -126 40 -60 72 -207 99 -459 14 -130 36 -319 50 -421
74 -562 73 -683 -9 -910 -19 -52 -49 -146 -67 -207 -18 -62 -36 -113 -42 -113
-32 0 -154 80 -202 132 -134 144 -166 291 -129 593 11 92 15 205 14 385 -3
393 7 1121 15 1160 9 42 22 68 44 94 15 17 17 17 36 -9 11 -16 53 -69 94 -119z
m1994 74 c22 -59 21 -20 31 -1175 2 -253 7 -375 20 -475 12 -88 15 -157 11
-198 -18 -170 -100 -314 -224 -396 -68 -44 -128 -70 -134 -58 -8 14 -57 169
-71 228 -9 34 -27 85 -40 115 -44 101 -59 197 -53 343 7 156 29 384 51 516 8
52 22 165 31 250 27 271 45 402 71 504 29 116 33 123 90 196 24 30 71 90 105
133 37 47 68 77 77 75 9 -2 24 -28 35 -58z m-2218 -932 c-3 -444 -7 -599 -19
-688 -28 -208 -17 -316 45 -447 52 -109 144 -204 246 -253 52 -25 72 -39 68
-50 -17 -57 -69 -361 -120 -710 -28 -193 -57 -522 -49 -545 4 -9 14 -15 22
-13 18 3 35 74 56 228 l13 95 7 -55 c12 -91 51 -219 77 -255 16 -22 59 -189
59 -229 0 -22 -7 -66 -15 -96 -26 -95 -45 -230 -51 -365 -3 -71 -12 -155 -20
-186 -20 -80 -17 -150 7 -222 29 -84 30 -158 3 -194 -32 -43 -62 -49 -148 -29
-79 19 -131 18 -209 -4 -42 -13 -50 -12 -76 3 -37 21 -61 21 -122 0 -43 -16
-49 -16 -66 -2 -32 28 -52 29 -98 7 -45 -22 -46 -22 -81 -3 -34 18 -35 18 -77
-2 -51 -24 -81 -15 -96 30 -28 78 -4 173 64 257 24 30 85 105 134 165 109 133
141 194 154 297 11 81 6 117 -28 208 -21 57 -15 135 19 242 14 42 30 116 36
165 10 80 7 268 -6 351 -6 40 11 35 20 -5 23 -93 103 -326 114 -331 31 -11 30
19 -4 198 -71 369 -169 830 -220 1029 -19 73 -34 139 -34 145 0 7 15 19 33 28
51 25 132 96 182 159 62 79 99 164 127 289 21 97 23 131 24 445 3 470 17 915
30 915 2 0 1 -258 -1 -572z m2304 157 c6 -78 10 -294 9 -490 -2 -330 -1 -356
20 -445 26 -114 55 -189 95 -250 43 -64 169 -185 216 -206 26 -13 39 -24 36
-34 -19 -66 -87 -342 -100 -410 -9 -47 -39 -185 -66 -307 -46 -207 -119 -599
-119 -637 0 -9 8 -16 19 -16 20 0 19 -3 116 305 l22 70 -5 -205 -5 -205 38
-124 c44 -145 47 -198 15 -300 -19 -60 -22 -88 -17 -152 8 -125 58 -214 227
-409 103 -118 145 -199 138 -270 -7 -68 -30 -100 -72 -100 -18 0 -39 7 -46 15
-16 20 -41 19 -85 -2 -34 -16 -36 -16 -81 6 l-45 23 -25 -23 c-23 -21 -27 -22
-67 -10 -74 23 -106 24 -132 7 -32 -21 -53 -20 -124 4 -58 19 -59 19 -140 0
-103 -25 -122 -25 -154 0 -47 37 -52 78 -22 183 36 126 40 172 20 227 -10 28
-21 117 -30 235 -8 105 -16 199 -19 210 -3 11 -15 71 -27 133 l-21 114 22 81
c12 45 30 102 40 127 62 152 70 180 70 241 0 88 15 63 30 -51 19 -146 33 -194
59 -198 26 -4 26 -16 1 250 -34 352 -116 892 -156 1021 -3 11 1 19 13 23 151
49 286 188 333 343 40 129 45 187 27 317 -9 66 -19 171 -22 234 -8 191 -13
1054 -5 930 4 -63 13 -178 19 -255z m307 -1974 c-27 -203 -47 -292 -96 -436
-28 -80 -30 -85 -25 -40 4 28 33 172 65 320 33 149 62 289 66 313 4 23 9 41
11 39 2 -3 -7 -91 -21 -196z m-2897 -102 c28 -134 58 -274 67 -311 25 -106 11
-102 -23 7 -54 172 -61 206 -83 375 -12 91 -23 176 -26 190 -4 23 -4 23 5 4 5
-12 32 -131 60 -265z m561 -218 c-6 -53 -18 -121 -26 -151 -14 -54 -14 -54 -9
-10 3 25 12 97 20 160 8 63 15 120 16 125 1 6 3 2 6 -9 3 -10 0 -61 -7 -115z
m1746 -15 c8 -59 14 -110 11 -112 -5 -6 -24 90 -33 171 -11 99 4 57 22 -59z"/>
<path d="M13290 16230 c-102 -31 -312 -157 -326 -195 -3 -7 -39 -41 -80 -75
-41 -34 -74 -66 -74 -72 0 -5 20 -32 44 -59 35 -39 56 -79 98 -187 50 -129 57
-142 130 -223 131 -147 202 -191 499 -313 156 -64 188 -72 218 -57 31 17 26
44 -29 165 -60 131 -70 167 -110 406 -53 318 -69 385 -116 485 -26 57 -75 109
-117 124 -32 12 -100 13 -137 1z m150 -52 c77 -53 130 -208 175 -514 41 -278
69 -379 141 -510 19 -33 34 -64 34 -67 0 -17 -53 -2 -203 59 -290 117 -375
171 -484 307 -55 67 -82 119 -127 247 -18 52 -41 92 -71 127 -51 58 -51 69 3
109 21 15 61 50 89 78 64 61 120 100 193 133 128 59 196 67 250 31z"/>
<path d="M15863 16219 c-97 -48 -149 -196 -217 -622 -31 -191 -61 -295 -121
-412 -25 -48 -45 -93 -45 -100 0 -27 38 -48 78 -41 41 6 217 76 365 145 216
100 346 236 432 452 38 96 59 133 97 174 26 29 48 60 48 69 0 9 -15 28 -32 43
-18 16 -58 53 -89 83 -98 96 -125 117 -203 154 -166 78 -240 91 -313 55z m232
-58 c100 -41 151 -76 271 -189 l98 -92 -36 -38 c-53 -56 -71 -87 -117 -201
-50 -125 -82 -173 -177 -268 -63 -63 -89 -80 -206 -137 -218 -106 -408 -175
-408 -149 0 3 11 25 24 48 66 111 113 270 146 490 40 268 88 449 137 514 53
69 132 76 268 22z"/>
<path d="M12740 15815 c-7 -9 -15 -37 -18 -63 -3 -41 0 -53 22 -79 51 -60 203
-162 219 -147 8 8 -13 74 -47 149 -56 121 -138 186 -176 140z m88 -58 c29 -30
96 -166 87 -176 -5 -4 -90 66 -127 106 -25 27 -32 46 -29 86 2 27 34 20 69
-16z"/>
<path d="M16459 15780 c-67 -72 -135 -250 -95 -250 21 0 135 79 182 125 49 49
56 70 38 120 -24 72 -61 73 -125 5z m96 -17 c4 -18 1 -34 -13 -52 -27 -37
-136 -124 -140 -111 -6 18 48 124 81 158 38 39 63 41 72 5z"/>
<path d="M12706 15594 c-32 -31 -21 -115 33 -258 27 -72 62 -171 76 -219 32
-105 73 -163 135 -194 124 -62 355 -89 493 -59 82 18 202 73 231 105 18 19 18
22 2 46 -9 14 -21 25 -26 25 -5 0 -76 27 -157 61 -173 71 -271 129 -362 214
-72 67 -207 177 -298 241 -70 50 -105 60 -127 38z m149 -103 c44 -34 98 -74
120 -89 22 -15 46 -35 53 -44 7 -9 52 -50 100 -91 102 -87 210 -148 377 -212
66 -26 124 -50 128 -55 5 -4 -4 -16 -20 -27 -119 -82 -308 -106 -499 -63 -104
24 -154 44 -191 80 -28 25 -63 92 -63 118 0 10 -4 22 -9 28 -4 5 -18 43 -31
84 -12 41 -37 112 -56 158 -23 54 -34 98 -34 130 0 78 1 77 125 -17z"/>
<path d="M16474 15553 c-109 -71 -152 -105 -263 -209 -47 -44 -107 -95 -133
-112 -64 -44 -231 -124 -353 -170 -142 -53 -141 -77 3 -144 178 -84 331 -88
575 -17 72 21 130 64 166 122 11 18 31 77 44 132 14 55 46 152 72 215 41 100
46 121 40 163 -3 26 -8 54 -11 62 -11 27 -50 16 -140 -42z m110 1 c13 -33 5
-68 -44 -194 -28 -71 -55 -153 -61 -182 -17 -84 -65 -180 -103 -206 -48 -33
-215 -73 -331 -79 -83 -4 -116 -2 -185 16 -81 20 -180 67 -187 88 -2 6 33 23
79 37 99 32 268 111 334 157 26 17 86 68 133 113 47 45 129 112 181 150 52 38
109 80 125 92 36 27 51 29 59 8z"/>
<path d="M14433 13605 c-45 -19 -128 -99 -173 -165 -124 -182 -271 -530 -320
-756 -24 -112 -25 -147 -5 -251 13 -71 13 -85 -1 -138 -20 -79 -50 -128 -124
-205 -45 -47 -60 -71 -60 -92 0 -59 46 -97 168 -139 134 -46 261 -156 406
-352 48 -65 106 -131 128 -147 43 -32 81 -38 95 -17 4 6 8 404 9 882 1 760 3
886 18 995 10 69 18 176 18 238 1 105 -1 115 -22 137 -27 29 -85 33 -137 10z
m103 -29 c17 -13 19 -26 18 -128 -1 -62 -9 -160 -19 -218 -15 -93 -17 -208
-19 -985 -2 -963 2 -905 -59 -847 -16 15 -58 70 -95 122 -135 191 -289 328
-425 376 -165 58 -178 87 -87 184 77 83 105 130 126 209 14 56 14 72 3 125
-19 88 -15 207 9 301 43 161 134 401 210 550 73 145 199 295 263 313 47 14 53
14 75 -2z"/>
<path d="M14749 13601 c-21 -17 -24 -29 -27 -117 -2 -55 2 -142 9 -194 16
-120 21 -362 23 -1232 1 -528 4 -700 13 -709 18 -18 73 -13 102 9 14 10 56 62
94 115 179 250 273 330 480 408 33 12 74 37 93 54 53 50 47 73 -40 164 -41 43
-85 100 -97 127 -23 47 -24 57 -21 233 4 194 4 195 -50 376 -49 165 -184 459
-273 595 -100 153 -235 229 -306 171z m116 -32 c95 -50 165 -145 284 -388 90
-183 176 -432 192 -551 6 -51 6 -106 -2 -174 -20 -171 4 -244 119 -369 40 -42
72 -83 72 -91 0 -21 -53 -62 -107 -82 -99 -35 -134 -54 -205 -106 -95 -71
-193 -177 -285 -311 -41 -59 -84 -112 -95 -118 -50 -27 -48 -48 -50 673 -1
370 -1 761 0 868 2 130 -2 239 -12 325 -21 174 -21 308 0 329 21 21 42 20 89
-5z"/>
<path d="M15780 11739 c-36 -4 -121 -12 -190 -18 -72 -5 -141 -16 -162 -25
-33 -14 -38 -21 -38 -49 0 -43 30 -90 82 -128 24 -17 124 -70 223 -118 191
-93 315 -168 405 -245 58 -50 95 -65 112 -48 22 22 -24 206 -97 382 -82 199
-87 206 -163 240 -46 21 -69 22 -172 9z m151 -40 c21 -7 47 -21 58 -33 39 -41
171 -385 187 -487 l7 -44 -44 36 c-124 101 -194 145 -409 252 -173 87 -245
128 -272 157 -42 44 -45 52 -23 74 16 15 28 17 265 40 193 18 187 18 231 5z"/>
<path d="M13339 11720 c-44 -23 -54 -39 -117 -176 -63 -139 -90 -217 -112
-329 -19 -93 -15 -115 19 -115 9 1 72 44 141 96 103 79 161 113 330 196 263
130 330 180 330 248 0 59 -31 70 -244 86 -245 18 -303 17 -347 -6z m305 -30
c78 -6 165 -15 194 -21 46 -9 52 -13 52 -36 0 -44 -60 -86 -273 -191 -209
-102 -308 -162 -416 -252 -73 -60 -73 -60 -31 100 39 146 142 375 179 395 32
17 110 18 295 5z"/>
<path d="M13968 11614 c-71 -88 -142 -145 -236 -190 -304 -142 -410 -206 -524
-317 -81 -79 -129 -160 -148 -247 -21 -98 -24 -429 -6 -570 32 -245 78 -388
171 -529 98 -148 210 -247 361 -318 78 -36 81 -37 230 -41 135 -4 166 -1 284
23 162 32 240 62 328 126 121 88 176 185 194 341 11 103 4 408 -12 528 -6 41
-14 199 -18 350 l-7 275 -36 80 c-45 103 -136 221 -266 345 -112 107 -183 154
-250 165 -39 6 -45 4 -65 -21z m99 -29 c121 -51 353 -287 429 -437 48 -94 52
-121 57 -383 3 -137 13 -315 22 -395 13 -106 16 -197 13 -340 -5 -185 -6 -198
-33 -264 -85 -208 -342 -326 -710 -326 -146 0 -211 17 -326 84 -93 55 -222
187 -283 293 -57 96 -110 259 -131 398 -20 130 -22 568 -3 644 15 62 70 161
117 209 93 96 296 223 486 303 110 47 190 103 257 178 23 28 49 50 56 51 7 0
29 -7 49 -15z"/>
<path d="M15187 11599 c-71 -36 -282 -243 -346 -338 -23 -35 -59 -103 -79
-150 l-35 -86 -8 -265 c-4 -146 -12 -305 -19 -355 -6 -49 -11 -182 -12 -295
-2 -219 6 -284 47 -375 93 -206 366 -336 711 -336 144 0 159 2 256 37 97 36
177 89 266 175 94 91 131 142 182 252 80 173 111 351 117 689 5 240 4 261 -15
325 -29 94 -84 175 -173 254 -101 91 -174 136 -379 237 -216 106 -263 137
-319 207 -42 53 -46 55 -90 55 -31 -1 -65 -11 -104 -31z m199 -78 c79 -78 142
-117 294 -182 202 -86 418 -247 484 -361 61 -106 66 -132 66 -382 0 -304 -25
-471 -99 -676 -37 -101 -90 -176 -192 -276 -103 -99 -170 -143 -274 -177 -192
-64 -553 -16 -735 98 -48 30 -124 113 -149 164 -47 91 -55 152 -54 381 1 122
8 273 17 348 9 78 16 215 16 327 0 180 2 200 25 274 28 87 94 196 174 283 26
29 56 63 67 76 54 66 226 182 270 182 6 0 47 -35 90 -79z"/>
</g>
</svg>
